<?xml version="1.0" standalone="no"?>
<!DOCTYPE svg PUBLIC "-//W3C//DTD SVG 1.1//EN" "http://www.w3.org/Graphics/SVG/1.1/DTD/svg11.dtd" >
<svg xmlns="http://www.w3.org/2000/svg">
<metadata>Generated by IcoMoon</metadata>
<defs>
<font id="icons" horiz-adv-x="1024">
<font-face units-per-em="1024" ascent="960" descent="-64" />
<missing-glyph horiz-adv-x="1024" />
<glyph unicode="&#x20;" horiz-adv-x="512" d="" />
<glyph unicode="&#xe931;" glyph-name="careers" horiz-adv-x="939" d="M917.333 853.333h-448c-12.8 0-21.333-8.533-21.333-21.333v-258.133l-85.333 85.333c-23.467 23.467-42.667 23.467-66.133 0l-296.533-296.533h78.933v-298.667c0-12.8 8.533-21.333 21.333-21.333h817.067c12.8 0 21.333 8.533 21.333 21.333v768c0 12.8-8.533 21.333-21.333 21.333zM384 345.6h-128c-6.4 0-10.667-4.267-10.667-10.667v-249.6h-123.733v300.8l209.067 206.933 202.667-194.133 6.4-8.533v-305.067h-147.2v249.6c0 6.4-4.267 10.667-8.533 10.667v0zM896 85.333h-311.467v85.333h76.8v149.333h-76.8v64h76.8v149.333h-106.667v-64l-64 64v277.333h405.333v-725.333zM661.333 746.667h-106.667v-149.333h106.667v149.333zM832 746.667h-106.667v-149.333h106.667v149.333zM832 533.333h-106.667v-149.333h106.667v149.333zM832 320h-106.667v-149.333h106.667v149.333z" />

<glyph unicode="&#xe900;" glyph-name="accidentReports" horiz-adv-x="614" d="M277.333 337.067l-29.867 234.667c0 25.6 19.2 46.933 61.867 46.933s59.733-25.6 59.733-46.933l-27.733-234.667c0-12.8-10.667-25.6-25.6-25.6-2.133 0-2.133 0-6.4 0s-2.133 0-6.4 0c-14.933-2.133-25.6 8.533-25.6 25.6 0-4.267 0 0 0 0v0zM307.2 260.267v0c-29.867 0-51.2-21.333-51.2-51.2s21.333-51.2 51.2-51.2 51.2 21.333 51.2 51.2-23.467 51.2-51.2 51.2zM614.4 697.6v-612.267c0-21.333-19.2-42.667-42.667-42.667h-531.2c-23.467 0-40.533 19.2-40.533 42.667v0 727.467c0 23.467 19.2 40.533 40.533 40.533h411.733c6.4 0 12.8-4.267 17.067-6.4l21.333-23.467 110.933-115.2c8.533 2.133 8.533-4.267 12.8-10.667 0 0 0 0 0 0zM565.333 652.8h-108.8c-29.867 0-51.2 23.467-51.2 51.2v104.533h-362.667v-723.2l522.667-4.267c0 4.267 0 571.733 0 571.733z" />
<glyph unicode="&#xe901;" glyph-name="AccidentSickness" horiz-adv-x="1026" d="M825.6 567.467h-64v64c0 21.333-17.067 34.133-34.133 34.133-21.333 0-34.133-17.067-34.133-34.133v-64h-64c-21.333 0-34.133-17.067-34.133-34.133s17.067-34.133 34.133-34.133v0h64v-64c0-21.333 17.067-34.133 34.133-34.133 21.333 0 34.133 17.067 34.133 34.133v64h64c21.333 0 34.133 17.067 34.133 34.133s-17.067 29.867-34.133 34.133v0zM390.4 661.333c-21.333 0-34.133-17.067-38.4-34.133-4.267-12.8-34.133-102.4-51.2-162.133h183.467v196.267c-29.867 0-59.733 0-93.867 0v0zM923.733 780.8h-576c-51.2-4.267-98.133-42.667-110.933-93.867l-59.733-179.2h-59.733c-64 0-76.8-59.733-81.067-89.6 0-8.533-4.267-17.067-4.267-25.6l-29.867-128c-4.267-21.333 0-42.667 12.8-59.733 17.067-21.333 46.933-34.133 72.533-34.133h51.2c12.8-72.533 81.067-115.2 153.6-102.4 51.2 8.533 93.867 51.2 102.4 102.4h264.533c12.8-72.533 81.067-115.2 153.6-102.4 51.2 8.533 93.867 51.2 102.4 102.4h8.533c55.467 0 102.4 46.933 102.4 102.4v0 405.333c-4.267 55.467-46.933 102.4-102.4 102.4v0zM974.933 273.067c0-25.6-21.333-51.2-51.2-51.2h-8.533c-12.8 72.533-81.067 115.2-153.6 102.4-51.2-8.533-93.867-51.2-102.4-102.4h-264.533c-12.8 72.533-81.067 115.2-153.6 102.4-51.2-8.533-93.867-51.2-102.4-102.4h-46.933c-12.8 0-25.6 4.267-34.133 12.8-4.267 4.267-4.267 8.533-4.267 17.067l25.6 132.267c0 8.533 4.267 17.067 4.267 25.6 8.533 42.667 12.8 51.2 34.133 51.2h93.867l72.533 213.333c8.533 29.867 29.867 51.2 64 55.467h576c25.6 0 51.2-21.333 51.2-51.2v-405.333z" />
<glyph unicode="&#xe902;" glyph-name="approved" horiz-adv-x="811" d="M405.333 853.333c-223.859 0-405.333-181.474-405.333-405.333s181.474-405.333 405.333-405.333c223.859 0 405.333 181.474 405.333 405.333s-181.474 405.333-405.333 405.333zM594.773 521.173l-221.867-222.507c-7.46-9.185-18.716-15.037-31.342-15.147-8.504 1.633-15.82 5.817-21.331 11.711l-104.767 104.556c-14.933 14.933-24.107 31.787-3.627 52.053s34.987 14.080 52.48-3.413l80.213-80.213 200.747 200.747c19.84 19.84 35.627 20.053 52.053 3.627 21.333-17.92 13.013-35.84-2.56-51.413z" />
<glyph unicode="&#xe903;" glyph-name="arrowLeft" horiz-adv-x="318" d="M294.4 153.6c-6.4 0-12.8 4.267-17.067 6.4l-270.933 270.933c-10.667 10.667-10.667 25.6 0 34.133l273.067 273.067c10.667 8.533 25.6 8.533 34.133 0 6.4-8.533 6.4-25.6-2.133-34.133l-256-256 256-256c10.667-10.667 10.667-25.6 0-36.267-4.267 0-10.667-2.133-17.067-2.133z" />
<glyph unicode="&#xe904;" glyph-name="arrowRight" horiz-adv-x="322" d="M23.467 153.6c-6.4 0-12.8 4.267-17.067 6.4-10.667 10.667-10.667 25.6 0 36.267l256 256-256 256c-10.667 8.533-10.667 25.6 0 34.133s25.6 8.533 34.133 0l273.067-273.067c10.667-10.667 10.667-25.6 0-34.133l-275.2-275.2c-2.133-4.267-8.533-6.4-14.933-6.4z" />
<glyph unicode="&#xe905;" glyph-name="atm" horiz-adv-x="832" d="M106.667 733.867h-96c-6.4 0-10.667 4.267-10.667 10.667v98.133c0 6.4 4.267 10.667 10.667 10.667h96c6.4 0 10.667-4.267 10.667-10.667v-98.133c0 0 0 0 0 0 0-4.267-4.267-10.667-10.667-10.667v0 0zM251.733 733.867h-98.133c-6.4 0-10.667 4.267-10.667 10.667v98.133c0 6.4 6.4 10.667 10.667 10.667h96c6.4 0 10.667-4.267 10.667-10.667v-98.133c0 0 0 0 0 0 2.133-4.267-2.133-10.667-8.533-10.667 0 0 0 0 0 0v0zM394.667 733.867h-96c-6.4 0-10.667 4.267-10.667 10.667v98.133c0 6.4 4.267 10.667 10.667 10.667h96c6.4 0 10.667-4.267 10.667-10.667v-98.133c0 0 0 0 0 0 0-4.267-4.267-10.667-10.667-10.667v0 0zM106.667 590.933h-96c-6.4 0-10.667 4.267-10.667 10.667v98.133c0 6.4 4.267 10.667 10.667 10.667h96c6.4 0 10.667-4.267 10.667-10.667v-98.133c0-6.4-4.267-10.667-10.667-10.667zM251.733 590.933h-98.133c-6.4 0-10.667 4.267-10.667 10.667v98.133c0 6.4 4.267 10.667 10.667 10.667h96c6.4 0 10.667-4.267 10.667-10.667v-98.133c2.133-6.4-2.133-10.667-8.533-10.667 0 0 0 0 0 0v0zM394.667 590.933h-96c-6.4 0-10.667 4.267-10.667 10.667v98.133c0 6.4 4.267 10.667 10.667 10.667h96c6.4 0 10.667-4.267 10.667-10.667v-98.133c0-6.4-4.267-10.667-10.667-10.667v0zM106.667 441.6h-96c-6.4 0-10.667 6.4-10.667 10.667v98.133c0 6.4 4.267 10.667 10.667 10.667h96c6.4 0 10.667-4.267 10.667-10.667v-98.133c0 0 0 0 0 0 0-4.267-4.267-10.667-10.667-10.667v0zM251.733 441.6h-98.133c-6.4 0-10.667 4.267-10.667 10.667v98.133c0 6.4 4.267 10.667 10.667 10.667h96c6.4 0 10.667-4.267 10.667-10.667v-98.133c0 0 0 0 0 0 2.133-4.267-2.133-10.667-8.533-10.667 0 0 0 0 0 0v0zM251.733 298.667h-98.133c-6.4 0-10.667 4.267-10.667 10.667v96c0 6.4 4.267 10.667 10.667 10.667h96c6.4 0 10.667-4.267 10.667-10.667v-98.133c0-4.267-4.267-8.533-8.533-8.533 0 0 0 0 0 0v0zM394.667 441.6h-96c-6.4 0-10.667 4.267-10.667 10.667v98.133c0 6.4 4.267 10.667 10.667 10.667h96c6.4 0 10.667-4.267 10.667-10.667v-98.133c0 0 0 0 0 0 0-4.267-4.267-10.667-10.667-10.667v0 0zM832 362.667v-64c-2.133-51.2-8.533-100.267-21.333-145.067-10.667-36.267-19.2-81.067-21.333-128 0-12.8-8.533-21.333-21.333-21.333h-256c-12.8 0-21.333 8.533-21.333 21.333 0 32-14.933 51.2-38.4 81.067-14.933 17.067-27.733 36.267-40.533 55.467-32 51.2-59.733 106.667-83.2 164.267-4.267 12.8-6.4 21.333-6.4 29.867 0 12.8 4.267 23.467 8.533 34.133 10.667 12.8 25.6 19.2 40.533 19.2 0 0 0 0 2.133 0 25.6 0 51.2-21.333 74.667-49.067v215.467c0 36.267 27.733 64 64 64s64-27.733 64-64v-89.6c6.4 2.133 14.933 4.267 21.333 4.267 23.467 0 42.667-12.8 53.333-29.867 4.267 2.133 8.533 4.267 12.8 6.4 6.4 2.133 10.667 2.133 17.067 2.133 29.867 0 53.333-19.2 59.733-46.933 6.4 2.133 14.933 4.267 23.467 4.267 0 0 2.133 0 2.133 0 38.4 0 66.133-29.867 66.133-64v0zM791.467 366.933c0 12.8-8.533 21.333-21.333 21.333s-21.333-8.533-21.333-21.333v-25.6c0-12.8-8.533-21.333-21.333-21.333s-21.333 8.533-21.333 21.333v68.267c0 12.8-8.533 21.333-21.333 21.333s-21.333-8.533-21.333-21.333v-46.933c0-12.8-8.533-21.333-21.333-21.333s-21.333 8.533-21.333 21.333v68.267c0 12.8-8.533 21.333-21.333 21.333s-21.333-8.533-21.333-21.333v-46.933c0-12.8-8.533-21.333-21.333-21.333s-21.333 8.533-21.333 21.333v194.133c0 12.8-8.533 21.333-21.333 21.333s-21.333-8.533-21.333-21.333v-324.267c0-12.8-8.533-21.333-21.333-21.333s-21.333 8.533-21.333 21.333v17.067c-19.2 49.067-59.733 91.733-74.667 91.733 0 0-2.133 0-2.133 0-4.267 0-6.4-2.133-6.4-4.267-2.133-2.133-2.133-6.4-2.133-8.533s0-6.4 2.133-10.667c23.467-59.733 51.2-110.933 83.2-160 10.667-17.067 23.467-34.133 36.267-51.2 21.333-21.333 38.4-51.2 46.933-83.2l213.333-2.133c4.267 44.8 10.667 87.467 23.467 128 10.667 34.133 19.2 76.8 21.333 123.733v72.533z" />
<glyph unicode="&#xe906;" glyph-name="atv" horiz-adv-x="939" d="M706.133 597.333h10.667v110.933h-10.667c-27.733-4.267-49.067-27.733-49.067-55.467s21.333-51.2 49.067-55.467v0zM416 714.667h110.933c10.667 0 19.2-6.4 23.467-14.933l29.867-61.867 51.2-14.933-49.067 98.133c-10.667 19.2-32 34.133-55.467 34.133h-113.067c-10.667-2.133-17.067-8.533-17.067-19.2s10.667-21.333 19.2-21.333v0zM800 484.267h81.067c0 0 0 0 0 0 0 14.933-10.667 29.867-25.6 34.133l-273.067 87.467-74.667-108.8c-8.533-10.667-21.333-19.2-34.133-19.2-4.267 0-8.533 0-12.8 2.133l-326.4 100.267c-2.133 0-4.267 0-4.267 0s-4.267 0-6.4 0c0 0 0 0 0 0-17.067 0-32-8.533-40.533-21.333l-23.467-36.267 147.2-49.067c78.933-27.733 134.4-100.267 134.4-185.6 0 0 0 0 0 0h266.667c0 0 0 0 0 0-4.267 106.667 83.2 194.133 192 196.267v0zM893.867 371.2c-27.733 27.733-66.133 44.8-106.667 44.8 0 0 0 0 0 0v0c0 0 0 0 0 0-85.333 0-153.6-68.267-153.6-153.6s68.267-153.6 153.6-153.6c85.333 0 153.6 68.267 153.6 153.6-2.133 42.667-19.2 81.067-46.933 108.8zM785.067 149.333c-61.867 2.133-108.8 53.333-108.8 113.067s49.067 110.933 108.8 113.067v0c0 0 0 0 0 0 32 0 59.733-12.8 78.933-34.133 21.333-21.333 34.133-49.067 34.133-81.067 0-59.733-51.2-108.8-113.067-110.933v0zM785.067 332.8c0 0 0 0 0 0-38.4 0-70.4-32-70.4-70.4s32-70.4 70.4-70.4c38.4 0 70.4 32 70.4 70.4 0 0 0 0 0 0 0 38.4-32 70.4-70.4 70.4v0zM155.733 416v0c0 0 0 0 0 0-87.467 0-155.733-68.267-155.733-153.6s68.267-153.6 153.6-153.6 153.6 68.267 153.6 153.6c0 0 0 0 0 0 0 42.667-17.067 81.067-44.8 108.8-25.6 27.733-64 44.8-106.667 44.8 0 0 0 0 0 0v0zM155.733 149.333c-61.867 2.133-108.8 53.333-108.8 113.067s49.067 110.933 108.8 113.067v0c32 0 59.733-12.8 78.933-34.133s32-49.067 32-78.933c0-59.733-49.067-110.933-110.933-113.067v0zM155.733 332.8c0 0 0 0 0 0-38.4 0-70.4-32-70.4-70.4s32-70.4 70.4-70.4c38.4 0 70.4 32 70.4 70.4 0 0 0 0 0 0 0 38.4-32 70.4-70.4 70.4v0z" />
<glyph unicode="&#xe907;" glyph-name="banking" horiz-adv-x="853" d="M57.6 157.867h738.133c6.4 0 10.667-4.267 10.667-10.667v-23.467c0-6.4-4.267-10.667-10.667-10.667h-738.133c-6.4 0-10.667 4.267-10.667 10.667v23.467c0 6.4 4.267 10.667 10.667 10.667zM840.533 89.6h-829.867c-6.4 0-10.667-4.267-10.667-10.667v-23.467c0-8.533 4.267-12.8 10.667-12.8h829.867c6.4 0 10.667 4.267 10.667 10.667v23.467c2.133 6.4-4.267 12.8-10.667 12.8zM806.4 608c0 6.4-4.267 10.667-10.667 10.667h-738.133c-6.4 0-10.667-4.267-10.667-10.667v-23.467c0-6.4 4.267-10.667 10.667-10.667h738.133c6.4 0 10.667 4.267 10.667 10.667v23.467zM23.467 640h806.4c6.4 0 10.667 6.4 10.667 10.667s-2.133 8.533-6.4 10.667l-403.2 192c-2.133 0-2.133 0-4.267 0s-4.267 0-4.267-2.133l-403.2-187.733c-4.267-2.133-6.4-6.4-6.4-10.667 0-6.4 4.267-10.667 10.667-12.8v0zM172.8 181.333c6.4 0 10.667 4.267 10.667 10.667v345.6c0 6.4-4.267 10.667-10.667 10.667h-57.6c-6.4 0-10.667-4.267-10.667-10.667v-345.6c0-6.4 4.267-10.667 10.667-10.667h57.6zM364.8 181.333c0 0 0 0 0 0 6.4 0 12.8 4.267 12.8 10.667 0 0 0 0 0 0v345.6c0 6.4-4.267 10.667-10.667 10.667h-57.6c-6.4 0-10.667-4.267-10.667-10.667v-345.6c0-6.4 4.267-10.667 10.667-10.667h55.467zM556.8 181.333c6.4 0 10.667 4.267 10.667 10.667v345.6c0 6.4-4.267 10.667-10.667 10.667h-57.6c-6.4 0-10.667-4.267-10.667-10.667v-345.6c0-6.4 4.267-10.667 10.667-10.667h57.6zM746.667 181.333c6.4 0 10.667 4.267 10.667 10.667v345.6c0 6.4-4.267 10.667-10.667 10.667h-57.6c-6.4 0-10.667-4.267-10.667-10.667v-345.6c0-6.4 4.267-10.667 10.667-10.667h57.6z" />
<glyph unicode="&#xe908;" glyph-name="bicycle" horiz-adv-x="858" d="M686.933 448c-19.2 0-38.4-2.133-53.333-10.667-25.6 57.6-53.333 115.2-66.133 147.2l-12.8 21.333c-2.133 6.4 10.667 29.867 17.067 34.133 10.667 17.067 17.067 25.6 10.667 34.133-2.133 6.4-10.667 8.533-17.067 8.533v0h-106.667c-10.667 0-17.067-6.4-17.067-17.067s6.4-17.067 17.067-17.067h83.2c-10.667-19.2-25.6-40.533-12.8-64l10.667-21.333 17.067-29.867h-247.467l-19.2 38.4h42.667c12.8 0 21.333 10.667 21.333 21.333v2.133c0 10.667-10.667 19.2-19.2 23.467l-140.8 17.067h-2.133c-8.533 0-19.2-8.533-19.2-19.2v0-23.467c0-12.8 8.533-21.333 23.467-21.333h57.6l25.6-51.2-55.467-89.6c-19.2 12.8-34.133 17.067-57.6 17.067-91.733 0-166.4-74.667-166.4-166.4s72.533-166.4 166.4-166.4c87.467 0 157.867 64 166.4 149.333h78.933c6.4 0 10.667 4.267 12.8 6.4l145.067 224 34.133-70.4c-46.933-29.867-81.067-81.067-81.067-140.8 0-93.867 74.667-166.4 166.4-166.4s166.4 74.667 166.4 166.4-74.667 166.4-168.533 164.267c0 2.133 0 2.133 0 0 0 0 0 0 0 0zM166.4 160v0c-68.267 0-121.6 53.333-121.6 121.6s55.467 121.6 121.6 121.6c12.8 0 23.467-2.133 32-2.133l-49.067-81.067c-17.067-6.4-25.6-21.333-25.6-38.4 0-23.467 19.2-40.533 40.533-40.533 19.2 0 32 12.8 38.4 25.6h83.2c-4.267-57.6-55.467-106.667-119.467-106.667 0 0 0 0 0 0zM204.8 298.667c-2.133 10.667-8.533 17.067-17.067 19.2l40.533 70.4c32-19.2 51.2-51.2 57.6-87.467 2.133 0-81.067-4.267-81.067-2.133zM332.8 298.667c-6.4 53.333-34.133 102.4-81.067 128l42.667 66.133 96-194.133h-57.6zM416 317.867l-96 192h217.6c0 0-121.6-192-121.6-192zM686.933 160c-68.267 0-121.6 53.333-121.6 121.6 0 44.8 21.333 81.067 57.6 102.4l36.267-74.667c-6.4-6.4-12.8-19.2-12.8-29.867 0-23.467 19.2-40.533 42.667-40.533s42.667 19.2 42.667 42.667-19.2 42.667-42.667 42.667l-36.267 74.667c10.667 2.133 21.333 6.4 36.267 6.4 68.267 0 121.6-53.333 121.6-121.6s-53.333-123.733-123.733-123.733c4.267 0 0 0 0 0s0 0 0 0z" />
<glyph unicode="&#xe909;" glyph-name="bookAppointment" horiz-adv-x="811" d="M755.2 757.333h-93.867c0 0 0-59.733 0-70.4 0-21.333-17.067-38.4-38.4-38.4s-38.4 17.067-38.4 38.4v0c0 10.667 0 70.4 0 70.4h-142.933c0 0 0-59.733 0-70.4 0-21.333-17.067-38.4-38.4-38.4s-38.4 17.067-38.4 38.4c0 10.667 0 70.4 0 70.4h-140.8c0 0 0-59.733 0-70.4 0-21.333-17.067-38.4-38.4-38.4s-38.4 17.067-38.4 38.4c0 10.667 0 70.4 0 70.4h-91.733c-29.867 0-55.467-23.467-55.467-53.333v-573.867c0-29.867 23.467-53.333 53.333-53.333h701.867c29.867 0 55.467 23.467 55.467 53.333v0 573.867c0 29.867-25.6 53.333-55.467 53.333v0zM765.867 142.933c0-12.8-8.533-21.333-21.333-21.333h-678.4c-12.8 0-21.333 8.533-21.333 21.333v462.933h723.2l-2.133-462.933zM620.8 832h4.267c8.533 0 14.933-6.4 14.933-14.933v-130.133c0-8.533-6.4-14.933-14.933-14.933h-4.267c-8.533 0-14.933 6.4-14.933 14.933v130.133c2.133 8.533 8.533 14.933 14.933 14.933v0zM187.733 832h4.267c8.533 0 14.933-6.4 14.933-14.933v-130.133c0-8.533-6.4-14.933-14.933-14.933h-4.267c-8.533 0-14.933 6.4-14.933 14.933v130.133c0 8.533 6.4 14.933 14.933 14.933v0zM403.2 832h4.267c8.533 0 14.933-6.4 14.933-14.933v-130.133c0-8.533-6.4-14.933-14.933-14.933h-4.267c-8.533 0-14.933 6.4-14.933 14.933v130.133c0 8.533 6.4 14.933 14.933 14.933v0zM110.933 386.133h149.333c6.4 0 10.667 4.267 10.667 10.667v0 138.667c0 6.4-4.267 10.667-10.667 10.667v0h-149.333c-6.4 0-10.667-4.267-10.667-10.667v0-138.667c0-4.267 4.267-10.667 10.667-10.667 0 0 0 0 0 0zM121.6 524.8h128v-115.2h-128c0 0 0 115.2 0 115.2zM328.533 386.133h149.333c6.4 0 12.8 4.267 12.8 10.667 0 0 0 0 0 2.133v138.667c0 6.4-4.267 10.667-10.667 10.667v0h-149.333c-6.4 0-10.667-4.267-10.667-10.667v0-138.667c-2.133-6.4 2.133-10.667 8.533-12.8v0zM339.2 524.8h128v-115.2h-128v115.2zM546.133 386.133h149.333c6.4 0 10.667 4.267 10.667 10.667v138.667c0 6.4-4.267 10.667-10.667 10.667h-149.333c-6.4 0-10.667-4.267-10.667-10.667v0-138.667c0-4.267 4.267-10.667 10.667-10.667 0 0 0 0 0 0zM558.933 524.8h128v-115.2h-128v115.2zM110.933 183.467h149.333c6.4 0 10.667 4.267 10.667 10.667v138.667c0 6.4-4.267 10.667-10.667 10.667v0h-149.333c-6.4 0-10.667-4.267-10.667-10.667v0-138.667c0-6.4 4.267-10.667 10.667-10.667v0zM121.6 322.133h128v-115.2h-128c0 0 0 115.2 0 115.2zM328.533 183.467h149.333c6.4 0 12.8 4.267 12.8 10.667 0 0 0 0 0 2.133v138.667c0 6.4-4.267 10.667-10.667 10.667v0h-149.333c-6.4 0-10.667-4.267-10.667-10.667v0-138.667c-2.133-6.4 2.133-12.8 8.533-12.8v0zM339.2 322.133h128v-115.2h-128v115.2zM546.133 343.467h149.333c6.4 0 10.667-4.267 10.667-10.667v-138.667c0-6.4-4.267-10.667-10.667-10.667h-149.333c-6.4 0-10.667 4.267-10.667 10.667v138.667c0 6.4 4.267 10.667 10.667 10.667z" />
<glyph unicode="&#xe90a;" glyph-name="bookAtBranch" horiz-adv-x="917" d="M789.333 550.4h-170.667v-147.2h170.667v147.2zM800 571.733c6.4 0 10.667-4.267 10.667-10.667v-168.533c0-6.4-4.267-10.667-10.667-10.667h-189.867c-6.4 0-10.667 4.267-10.667 10.667v168.533c0 6.4 4.267 10.667 10.667 10.667h189.867zM533.333 550.4h-170.667v-147.2h170.667v147.2zM544 571.733c6.4 0 10.667-4.267 10.667-10.667v-168.533c0-6.4-4.267-10.667-10.667-10.667h-189.867c-6.4 0-10.667 4.267-10.667 10.667v168.533c0 6.4 4.267 10.667 10.667 10.667h189.867zM533.333 315.733h-170.667v-149.333h170.667v149.333zM544 337.067c6.4 0 10.667-4.267 10.667-10.667v-168.533c0-6.4-4.267-10.667-10.667-10.667h-189.867c-6.4 0-10.667 4.267-10.667 10.667v168.533c0 6.4 4.267 10.667 10.667 10.667h189.867zM277.333 550.4h-170.667v-147.2h170.667v147.2zM288 571.733c6.4 0 10.667-4.267 10.667-10.667v-168.533c0-6.4-4.267-10.667-10.667-10.667h-192c-6.4 0-10.667 4.267-10.667 10.667v168.533c0 6.4 4.267 10.667 10.667 10.667h192zM277.333 315.733h-170.667v-149.333h170.667v149.333zM288 337.067c6.4 0 10.667-4.267 10.667-10.667v-168.533c0-6.4-4.267-10.667-10.667-10.667h-192c-6.4 0-10.667 4.267-10.667 10.667 0 0 0 0 0 0v168.533c0 6.4 4.267 10.667 10.667 10.667h192zM896 260.267v452.267c0 29.867-25.6 55.467-55.467 55.467v0h-108.8c0 0 0-61.867 0-72.533 0-21.333-17.067-38.4-38.4-38.4s-38.4 17.067-38.4 38.4c0 10.667 0 72.533 0 72.533h-166.4c0 0 0-61.867 0-72.533 0-21.333-17.067-38.4-38.4-38.4s-38.4 17.067-38.4 38.4c0 10.667 0 72.533 0 72.533h-170.667c0 0 0-61.867 0-72.533 0-21.333-17.067-38.4-38.4-38.4s-38.4 17.067-38.4 38.4c0 10.667 0 72.533 0 72.533h-108.8c-29.867 0-55.467-23.467-55.467-55.467v-593.067c0 0 0 0 0 0 0-29.867 25.6-55.467 55.467-55.467v0h595.2c27.733-25.6 66.133-42.667 108.8-42.667 87.467 0 160 70.4 160 160-2.133 29.867-10.667 57.6-23.467 78.933v0zM44.8 130.133v488.533h808.533v-307.2c-25.6 19.2-59.733 32-96 32-87.467 0-160-72.533-160-160 0-27.733 6.4-51.2 19.2-74.667h-550.4c0 0 0 0 0 0-12.8 0-21.333 10.667-21.333 21.333 0 0 0 0 0 0v0zM834.133 172.8h-66.133v-64h-21.333v64h-64v21.333h64v64h21.333v-64h64l2.133-21.333zM676.267 695.467v123.733c2.133 6.4 6.4 12.8 14.933 12.8h4.267c8.533 0 14.933-6.4 14.933-14.933v-121.6c0-8.533-6.4-14.933-14.933-14.933h-4.267c-8.533 0-14.933 6.4-14.933 14.933 0 0 0 0 0 0v0zM435.2 695.467v123.733c0 6.4 6.4 12.8 12.8 12.8h4.267c8.533 0 14.933-6.4 14.933-14.933v-121.6c0-8.533-6.4-14.933-14.933-14.933h-4.267c-8.533 0-14.933 6.4-12.8 14.933-2.133 0-2.133 0 0 0v0zM185.6 695.467v123.733c2.133 6.4 8.533 12.8 14.933 12.8h4.267c8.533 0 14.933-6.4 14.933-14.933v-121.6c0-8.533-6.4-14.933-14.933-14.933h-4.267c-8.533 0-14.933 6.4-14.933 14.933 0 0 0 0 0 0v0z" />
<glyph unicode="&#xe90b;" glyph-name="borrowing" horiz-adv-x="853" d="M390.4 42.667c-0.376-0.005-0.82-0.009-1.265-0.009-16.178 0-31.395 4.111-44.665 11.346l-333.164 174.262c-7.079 3.57-11.85 10.783-11.85 19.11 0 1.696 0.198 3.346 0.572 4.929 5.365 19.705 17.916 36.007 34.615 46.168 10.88 5.961 23.428 9.353 36.768 9.353 9.915 0 19.393-1.874 28.098-5.286l194.25-70.646c7.906-3.318 13.358-10.996 13.358-19.947 0-11.914-9.658-21.571-21.571-21.571-2.963 0-5.786 0.597-8.355 1.678l-191.858 70.347c-4.152 1.822-8.992 2.882-14.080 2.882s-9.928-1.060-14.311-2.971c-2.239-1.386-4.35-3.157-6.142-5.213l316.134-166.431c7.562-3.807 16.481-6.037 25.92-6.037s18.358 2.229 26.258 6.19c25.475 11.366 193.155 87.74 193.155 87.74 2.593 1.209 5.63 1.914 8.831 1.914 4.697 0 9.039-1.518 12.563-4.089l108.739-77.611c30.683 31.808 53.525 71.383 65.286 115.481l-212.7 84.412c-13.135 5.649-28.424 8.933-44.48 8.933s-31.345-3.285-45.232-9.219l-127.248-63.714 5.547-2.773c25.6-12.373 89.6 4.48 123.733 18.133 2.338 0.957 5.051 1.513 7.893 1.513 11.793 0 21.353-9.56 21.353-21.353 0-8.95-5.506-16.614-13.316-19.789-11.023-4.318-106.81-41.651-158.223-17.118-9.387 4.48-38.187 18.56-38.187 42.667 0.697 13.712 9.19 25.282 21.106 30.42l140.601 70.274c18.302 8.075 39.642 12.775 62.080 12.775s43.779-4.7 63.090-13.17l226.616-87.072c7.834-3.275 13.238-10.875 13.238-19.738 0-1.090-0.082-2.161-0.239-3.207-12.711-68.142-46.862-126.879-95.074-170.308-3.832-3.003-8.364-4.669-13.285-4.669s-9.453 1.666-13.062 4.465l-113.231 78.897c-37.973-17.28-160.853-73.387-182.827-82.987-12.847-5.673-27.829-8.976-43.582-8.976-0.653 0-1.306 0.006-1.956 0.017zM365.653 228.267v0zM106.667 853.333v-90.453h-64v-338.773h677.76v66.56h90.24v362.667zM438.827 514.987c-1.752-1.725-3.631-3.334-5.618-4.806-10.983-8.033-24.257-13.272-38.666-14.585l-0.303-10.476c0.001-0.064 0.002-0.139 0.002-0.215 0-6.995-5.611-12.679-12.577-12.798h-0.011c-6.904 0.118-12.469 5.683-12.587 12.576v10.251c-22.065 1.505-41.617 11.184-55.867 25.999-3.63 3.631-5.859 8.609-5.859 14.108 0 10.997 8.915 19.912 19.912 19.912 5.499 0 10.477-2.229 14.080-5.832 9.065-9.462 21.803-15.342 35.914-15.342 1.551 0 3.085 0.071 4.6 0.21 0.731-0.081 1.81-0.119 2.898-0.119 9.24 0 17.84 2.745 25.027 7.465 4.422 3.519 7.344 9.088 7.344 15.339 0 0.495-0.018 0.986-0.054 1.473 0.004 3.988 0.004 6.762-7.036 12.308-5.819 4.695-13.191 7.681-21.242 8.103l-22.705 3.63c-13.135 2-24.748 7.39-34.252 15.242-9.092 8.074-14.868 19.939-14.868 33.153 0 0.762 0.019 1.519 0.057 2.272-0.022 0.413-0.033 1.023-0.033 1.635 0 28.79 22.812 52.252 51.346 53.297l0.095 13.229c0.229 6.975 5.825 12.571 12.779 12.799 0.068 0.001 0.122 0.001 0.177 0.001 3.608 0 6.873-1.468 9.23-3.84 2.245-2.273 3.632-5.397 3.632-8.845 0-0.116-0.002-0.231-0.005-0.346v-14.49c15.522-2.62 29.163-9.283 40.208-18.86 3.669-3.388 6.087-8.283 6.297-13.743 0.019-0.349 0.029-0.713 0.029-1.080 0-5.114-1.956-9.771-5.161-13.265-3.793-3.867-9.064-6.3-14.904-6.385-0.043 0-0.074 0-0.106 0-5.073 0-9.692 1.946-13.151 5.133-8.333 6.426-18.939 10.307-30.452 10.307-0.99 0-1.973-0.029-2.949-0.085-0.198 0.030-0.586 0.043-0.978 0.043-8.87 0-16.14-6.853-16.804-15.553-0.003-8.164 8.103-10.937 14.93-12.004l22.4-3.627c15.859-1.302 30.054-7.538 41.271-17.148 12.904-9.582 21.237-24.897 21.237-42.157 0-0.15-0.001-0.301-0.002-0.451 0.001-0.105 0.002-0.256 0.002-0.408 0-16.388-6.6-31.235-17.286-42.028zM765.44 536.32h-45.013v226.56h-568.533v45.227h613.76z" />
<glyph unicode="&#xe90c;" glyph-name="branch" horiz-adv-x="853" d="M57.6 149.333h738.133c6.4 0 10.667-4.267 10.667-10.667v-23.467c0-6.4-4.267-10.667-10.667-10.667h-738.133c-6.4 0-10.667 4.267-10.667 10.667v23.467c0 6.4 4.267 10.667 10.667 10.667zM840.533 81.067h-829.867c-6.4 0-10.667-4.267-10.667-10.667v-23.467c0-6.4 4.267-10.667 10.667-10.667h829.867c6.4 0 10.667 4.267 10.667 10.667v23.467c2.133 6.4-4.267 10.667-10.667 10.667v0zM806.4 599.467c0 6.4-4.267 10.667-10.667 10.667h-738.133c-6.4 0-10.667-4.267-10.667-10.667v-23.467c0-6.4 4.267-10.667 10.667-10.667h738.133c0 0 0 0 0 0 6.4 0 10.667 4.267 10.667 10.667 0 0 0 0 0 0v23.467zM23.467 633.6h806.4c6.4 0 10.667 6.4 10.667 10.667s-2.133 8.533-6.4 10.667l-403.2 189.867c-2.133 0-2.133 2.133-4.267 2.133s-4.267 0-4.267-2.133l-405.333-189.867c-4.267-2.133-6.4-6.4-6.4-10.667 2.133-4.267 6.4-10.667 12.8-10.667v0zM172.8 174.933c6.4 0 10.667 4.267 10.667 10.667v345.6c0 6.4-4.267 10.667-10.667 10.667h-57.6c-6.4 0-10.667-4.267-10.667-10.667v-345.6c0-6.4 4.267-10.667 10.667-10.667h57.6zM364.8 174.933c6.4 0 10.667 4.267 10.667 10.667v345.6c0 6.4-4.267 10.667-10.667 10.667h-57.6c-6.4 0-10.667-4.267-10.667-10.667v-345.6c0-6.4 4.267-10.667 10.667-10.667h57.6zM556.8 174.933c6.4 0 10.667 4.267 10.667 10.667v345.6c0 6.4-4.267 10.667-10.667 10.667h-57.6c-6.4 0-10.667-4.267-10.667-10.667v-345.6c0-6.4 4.267-10.667 10.667-10.667h57.6zM746.667 174.933c6.4 0 10.667 4.267 10.667 10.667v345.6c0 6.4-4.267 10.667-10.667 10.667h-57.6c-6.4 0-10.667-4.267-10.667-10.667v-345.6c0-6.4 4.267-10.667 10.667-10.667h57.6z" />
<glyph unicode="&#xe90d;" glyph-name="branchATM" horiz-adv-x="811" d="M32 469.333h405.333c4.267 0 6.4-2.133 6.4-6.4v-12.8c0-4.267-2.133-6.4-6.4-6.4h-405.333c-4.267 0-6.4 2.133-6.4 6.4v12.8c0 4.267 2.133 6.4 6.4 6.4zM460.8 430.933h-454.4c-4.267 0-6.4-2.133-6.4-6.4v-12.8c0-2.133 2.133-6.4 6.4-6.4h454.4c4.267 0 6.4 2.133 6.4 6.4v12.8c0 4.267-2.133 6.4-6.4 6.4 0 0 0 0 0 0v0zM443.733 716.8c0 4.267-2.133 6.4-6.4 6.4h-405.333c-4.267 0-6.4-2.133-6.4-6.4v-12.8c0-4.267 2.133-6.4 6.4-6.4h405.333c4.267 0 6.4 2.133 6.4 6.4v12.8zM12.8 733.867h441.6c4.267 0 6.4 2.133 6.4 6.4 0 2.133-2.133 4.267-4.267 6.4l-219.733 102.4c0 0-2.133 0-2.133 0s-2.133 0-2.133 0l-221.867-104.533c-2.133-2.133-4.267-2.133-4.267-6.4 0-2.133 2.133-4.267 6.4-4.267v0zM96 482.133c4.267 0 6.4 2.133 6.4 6.4v189.867c0 4.267-2.133 6.4-6.4 6.4v0h-32c-4.267 0-6.4-2.133-6.4-6.4v-189.867c0-4.267 2.133-6.4 6.4-6.4h32zM202.667 482.133c4.267 0 6.4 2.133 6.4 6.4v189.867c0 4.267-2.133 6.4-6.4 6.4h-34.133c-4.267 0-6.4-2.133-6.4-6.4v-189.867c0-4.267 2.133-6.4 6.4-6.4h34.133zM309.333 482.133c4.267 0 6.4 2.133 6.4 6.4v189.867c0 4.267-2.133 6.4-6.4 6.4h-34.133c-4.267 0-6.4-2.133-6.4-6.4v-189.867c0-4.267 2.133-6.4 6.4-6.4h34.133zM413.867 482.133c4.267 0 6.4 2.133 6.4 6.4v189.867c0 4.267-2.133 6.4-6.4 6.4h-34.133c-4.267 0-6.4-2.133-6.4-6.4v-189.867c0-4.267 2.133-6.4 6.4-6.4h34.133zM281.6 42.667l-40.533 256h-51.2l-147.2-256h49.067l36.267 64h100.267l8.533-64h44.8zM209.067 238.933l12.8-96h-76.8l55.467 98.133c2.133 6.4 6.4 12.8 8.533 19.2v0-12.8c0-4.267 0-6.4 0-8.533v0zM492.8 298.667h-189.867l-8.533-36.267h72.533l-44.8-219.733h44.8l46.933 217.6h72.533l6.4 38.4zM763.733 298.667h-57.6l-76.8-102.4c-6.4-10.667-14.933-21.333-19.2-34.133v-2.133c0 10.667-2.133 23.467-6.4 32l-32 106.667h-51.2l-53.333-256h40.533l34.133 162.133c2.133 8.533 4.267 25.6 8.533 53.333h2.133c0-8.533 2.133-17.067 4.267-25.6s4.267-17.067 6.4-23.467l27.733-91.733h27.733l72.533 96c10.667 12.8 19.2 27.733 27.733 44.8v2.133c-6.4-19.2-10.667-38.4-12.8-53.333l-36.267-164.267h40.533l53.333 256zM789.333 601.6h-110.933v108.8c0 12.8-8.533 21.333-21.333 21.333s-21.333-8.533-21.333-21.333v-108.8h-110.933c-12.8 0-21.333-8.533-21.333-21.333s8.533-21.333 21.333-21.333h110.933v-110.933c0-12.8 8.533-21.333 21.333-21.333s21.333 8.533 21.333 21.333v110.933h110.933c12.8 0 21.333 8.533 21.333 21.333s-10.667 21.333-21.333 21.333z" />
<glyph unicode="&#xe90e;" glyph-name="businessOwner" horiz-adv-x="687" d="M686.933 281.6l-89.6 330.667c-2.133 8.533-10.667 14.933-21.333 14.933-2.133 0-4.267 0-6.4 0l-78.933-21.333-119.467 136.533c2.133 4.267 4.267 8.533 4.267 14.933 2.133 17.067-12.8 32-29.867 32s-32-14.933-32-32c0-4.267 2.133-10.667 4.267-14.933l-200.533-236.8-102.4-27.733c-8.533-2.133-14.933-10.667-14.933-21.333 0-2.133 0-4.267 0-6.4l89.6-330.667c2.133-8.533 10.667-14.933 21.333-14.933 0 0 0 0 0 0s2.133 0 2.133 0 2.133 0 2.133 0l556.8 149.333c8.533 2.133 14.933 10.667 14.933 21.333 0 4.267 0 6.4 0 6.4v0zM332.8 727.467c4.267-2.133 8.533-2.133 12.8-2.133s8.533 0 12.8 2.133l110.933-128-315.733-85.333 179.2 213.333zM123.733 153.6l-76.8 288 516.267 138.667 76.8-288-516.267-138.667zM234.667 375.467c-6.4 27.733-21.333 51.2-66.133 38.4s-44.8-40.533-38.4-66.133l19.2-72.533c6.4-27.733 21.333-51.2 66.133-38.4s44.8 40.533 38.4 66.133l-19.2 72.533zM209.067 264.533c0 0-2.133 0-2.133 0-4.267 0-8.533 4.267-8.533 8.533l-27.733 98.133c0 2.133-2.133 2.133-2.133 4.267 0 4.267 4.267 8.533 8.533 8.533s8.533-4.267 8.533-8.533c0 0 0 0 0 0l25.6-98.133c0-2.133 2.133-2.133 2.133-4.267 0-4.267-2.133-6.4-4.267-8.533v0zM341.333 413.867c-2.133 17.067-17.067 32-36.267 32-4.267 0-10.667-2.133-14.933-2.133l-57.6-17.067 44.8-170.667 42.667 10.667-19.2 68.267 19.2 4.267c27.733 6.4 32 25.6 25.6 51.2l-4.267 23.467zM300.8 369.067l-8.533-2.133-10.667 42.667 8.533 2.133c2.133 0 2.133 0 4.267 0 4.267 0 8.533-2.133 8.533-6.4l6.4-23.467c0-2.133 0-2.133 0-4.267 0-4.267-2.133-8.533-8.533-8.533v0zM418.133 330.667l-10.667 38.4 27.733 8.533-8.533 32-27.733-8.533-8.533 32 29.867 8.533-8.533 34.133-74.667-19.2 44.8-170.667 76.8 21.333-8.533 34.133-32-10.667zM484.267 494.933l23.467-85.333-46.933 78.933-38.4-10.667 44.8-170.667 38.4 10.667-25.6 96 49.067-89.6 38.4 10.667-44.8 170.667-38.4-10.667z" />
<glyph unicode="&#xe90f;" glyph-name="cantFindTopic" horiz-adv-x="815" d="M435.2 608c2.133-8.533 4.267-21.333 4.267-32 0 0 0 0 0 0s0-2.133 0-2.133c0-10.667-2.133-19.2-6.4-27.733s-8.533-14.933-14.933-21.333c-6.4-6.4-12.8-10.667-19.2-14.933-8.533-4.267-12.8-8.533-19.2-14.933-4.267-4.267-10.667-8.533-12.8-14.933-4.267-6.4-6.4-12.8-6.4-19.2 0 0 0 0 0-2.133v-8.533c0-6.4-4.267-12.8-8.533-17.067-4.267-6.4-12.8-8.533-21.333-8.533 0 0 0 0 0 0h-2.133c0 0-2.133 0-2.133 0-6.4 0-14.933 2.133-19.2 6.4s-8.533 10.667-8.533 17.067c0 14.933 2.133 27.733 8.533 40.533 4.267 8.533 8.533 17.067 14.933 25.6 6.4 6.4 12.8 12.8 19.2 17.067s12.8 10.667 19.2 14.933c4.267 4.267 8.533 8.533 12.8 14.933 4.267 4.267 4.267 10.667 4.267 14.933 0 0 0 0 0 0s0 2.133 0 2.133c0 8.533-4.267 17.067-8.533 21.333-6.4 4.267-14.933 8.533-23.467 8.533 0 0-2.133 0-2.133 0s0 0-2.133 0c-6.4 0-10.667 0-17.067-2.133-4.267 0-8.533-2.133-12.8-4.267s-8.533-4.267-10.667-8.533c-4.267-4.267-8.533-8.533-10.667-12.8-4.267-6.4-8.533-8.533-14.933-10.667-2.133 0-6.4-2.133-8.533-2.133-4.267 0-8.533 2.133-12.8 4.267-6.4 2.133-10.667 6.4-12.8 12.8 0 2.133-2.133 6.4-2.133 8.533s0 6.4 2.133 8.533 4.267 12.8 8.533 17.067c6.4 8.533 12.8 14.933 19.2 19.2 8.533 6.4 19.2 12.8 32 17.067s27.733 6.4 44.8 6.4c0 0 2.133 0 2.133 0s2.133 0 2.133 0c14.933 0 29.867-2.133 42.667-8.533 10.667-4.267 21.333-12.8 29.867-21.333 4.267-2.133 8.533-10.667 12.8-23.467v0zM330.667 405.333c0 0 0 0 0 0-10.667 0-19.2-2.133-25.6-8.533-6.4-4.267-10.667-10.667-10.667-19.2v-12.8c0-8.533 4.267-14.933 10.667-19.2 6.4-6.4 14.933-8.533 23.467-8.533 0 0 0 0 2.133 0 0 0 0 0 2.133 0 8.533 0 17.067 4.267 23.467 8.533s8.533 10.667 8.533 19.2v12.8c0 8.533-4.267 14.933-8.533 19.2-6.4 6.4-14.933 8.533-25.6 8.533 2.133 0 2.133 0 0 0v0zM802.133 55.467c-8.533-8.533-19.2-12.8-29.867-12.8s-23.467 4.267-29.867 12.8l-198.4 185.6c-55.467-42.667-128-68.267-204.8-68.267-187.733 0-339.2 151.467-339.2 339.2s151.467 339.2 339.2 339.2c187.733 0 339.2-151.467 339.2-339.2 0-81.067-27.733-153.6-74.667-211.2l196.267-185.6c8.533-8.533 12.8-19.2 12.8-29.867s-2.133-23.467-10.667-29.867v0zM614.4 512c0 151.467-123.733 275.2-275.2 275.2s-275.2-123.733-275.2-275.2 123.733-275.2 275.2-275.2c153.6 0 275.2 123.733 275.2 275.2z" />
<glyph unicode="&#xe910;" glyph-name="car" horiz-adv-x="809" d="M800 454.4c0 2.133 0 2.133 0 4.267 0 46.933-36.267 87.467-81.067 93.867l-4.267 12.8c-14.933 46.933-25.6 87.467-34.133 115.2-4.267 17.067-8.533 27.733-10.667 36.267-21.333 66.133-83.2 66.133-117.333 66.133h-294.4c-34.133 0-96 0-117.333-64-2.133-8.533-6.4-21.333-10.667-36.267-8.533-29.867-21.333-70.4-36.267-121.6l-2.133-4.267c-44.8-8.533-76.8-46.933-76.8-91.733 0 0 0-2.133 0-2.133l-14.933-253.867h113.067v-55.467c2.133-25.6 23.467-46.933 51.2-46.933 2.133 0 2.133 0 4.267 0 0 0 2.133 0 2.133 0 25.6 0 49.067 21.333 51.2 46.933v57.6h364.8v-55.467c2.133-25.6 23.467-46.933 51.2-46.933 2.133 0 2.133 0 4.267 0 0 0 2.133 0 4.267 0 25.6 0 49.067 21.333 51.2 46.933v57.6h110.933l-8.533 241.067zM181.333 663.467c4.267 14.933 8.533 27.733 10.667 34.133 6.4 19.2 17.067 27.733 66.133 27.733h294.4c49.067 0 59.733-8.533 66.133-27.733 2.133-8.533 6.4-19.2 10.667-34.133 8.533-27.733 19.2-64 34.133-110.933h-514.133c14.933 44.8 25.6 83.2 32 110.933v0zM168.533 341.333c0 0 0 0 0 0-32 0-59.733 25.6-59.733 59.733s25.6 59.733 59.733 59.733c32 0 59.733-25.6 59.733-59.733 0 0 0 0 0 0-2.133-34.133-27.733-59.733-59.733-59.733zM529.067 330.667h-249.6c-8.533 0-14.933 8.533-14.933 17.067s6.4 14.933 14.933 17.067h249.6c8.533 0 14.933-8.533 14.933-17.067s-6.4-17.067-14.933-17.067v0zM529.067 396.8h-249.6c-8.533 0-14.933 8.533-14.933 17.067s6.4 14.933 14.933 17.067h249.6c8.533 0 14.933-8.533 14.933-17.067s-6.4-14.933-14.933-17.067v0zM640 341.333c0 0 0 0 0 0-32 0-59.733 25.6-59.733 59.733s25.6 59.733 59.733 59.733 59.733-25.6 59.733-59.733c0 0 0 0 0 0 0-34.133-27.733-59.733-59.733-59.733v0z" />
<glyph unicode="&#xe911;" glyph-name="chat" horiz-adv-x="943" d="M591.787 751.787c-64.665 50.052-146.915 80.232-236.214 80.232-1.331 0-2.661-0.007-3.989-0.020-193.717 0.002-351.584-132.905-351.584-296.105 1.967-91.299 47.758-171.503 117.11-220.646l0.863-181.7 167.68 111.573c17.505-2.857 37.869-4.631 58.595-4.904 65.796-51.88 149.629-83.223 240.784-83.223 1.4 0 2.798 0.007 4.194 0.022 23.306 0.022 46.354 1.961 68.806 5.667l165.861-112.335v181.76c70.589 49.944 116.629 130.54 118.608 221.988 0.005 164.572-157.221 296.412-350.715 297.692zM359.893 282.453h-8.107c-19.359 0.103-38.27 1.651-56.736 4.54l-10.251 1.433-7.467 1.707-116.693-76.8v123.307l-9.173 6.4c-63.839 41.55-106.126 111.563-108.79 191.611-0.010 140.975 138.656 254.682 309.11 254.682 0.428 0.002 0.934 0.003 1.441 0.003 61.99 0 120.288-15.804 171.087-43.602 18.611-10.4 36.293-22.914 52.451-37.119 50.277-41.091 82.82-102.937 84.562-172.432 0.006-137.676-134.821-249.676-301.434-253.303zM402.133 524.587c0-24.035-20.917-43.52-46.72-43.52s-46.72 19.485-46.72 43.52c0 24.035 20.917 43.52 46.72 43.52s46.72-19.485 46.72-43.52zM238.507 524.587c0-24.035-20.917-43.52-46.72-43.52s-46.72 19.485-46.72 43.52c0 24.035 20.917 43.52 46.72 43.52s46.72-19.485 46.72-43.52zM565.547 524.587c0-24.035-20.917-43.52-46.72-43.52s-46.72 19.485-46.72 43.52c0 24.035 20.917 43.52 46.72 43.52s46.72-19.485 46.72-43.52z" />
<glyph unicode="&#xe912;" glyph-name="checkMark" horiz-adv-x="811" d="M291.413 147.84c-11.55 0.049-22.009 4.68-29.661 12.167l-248.739 241.699c-7.176 7.617-11.586 17.909-11.586 29.231 0 23.564 19.103 42.667 42.667 42.667 10.844 0 20.744-4.046 28.271-10.71l217.555-211.588 446.933 474.027c7.693 7.561 18.252 12.229 29.9 12.229 23.564 0 42.667-19.103 42.667-42.667 0-10.746-3.973-20.564-10.53-28.066l-476.331-505.55c-7.575-8.049-18.205-13.148-30.027-13.439z" />
<glyph unicode="&#xe913;" glyph-name="circle" horiz-adv-x="811" d="M405.333 853.333c-224 0-405.333-181.333-405.333-405.333s181.333-405.333 405.333-405.333c224 0 405.333 181.333 405.333 405.333s-181.333 405.333-405.333 405.333z" />
<glyph unicode="&#xe914;" glyph-name="claims" horiz-adv-x="977" d="M962.133 260.267l-260.267 100.267c-21.333 8.533-46.933 14.933-72.533 14.933s-51.2-6.4-72.533-14.933l-160-78.933c-14.933-6.4-25.6-21.333-25.6-38.4 0 0 0 0 0 0 6.4-23.467 23.467-42.667 46.933-49.067 64-29.867 181.333 19.2 183.467 19.2 6.4 4.267 10.667 12.8 10.667 21.333 0 14.933-12.8 27.733-27.733 27.733-2.133 0-4.267 0-6.4 0-42.667-17.067-110.933-34.133-138.667-21.333v0l140.8 70.4c14.933 6.4 32 10.667 49.067 10.667s34.133-4.267 51.2-10.667l238.933-91.733c-12.8-49.067-38.4-93.867-70.4-128l-123.733 85.333c-4.267 2.133-8.533 4.267-12.8 4.267s-8.533-2.133-12.8-4.267l-219.733-100.267c-8.533-4.267-17.067-6.4-27.733-6.4s-19.2 2.133-27.733 6.4l-358.4 187.733h2.133c4.267 2.133 10.667 4.267 14.933 4.267s10.667-2.133 14.933-4.267l217.6-76.8c4.267-2.133 6.4-2.133 10.667-2.133 10.667 0 21.333 6.4 25.6 14.933 2.133 4.267 2.133 8.533 2.133 12.8 0 10.667-6.4 21.333-14.933 25.6h-4.267l-219.733 81.067c-8.533 4.267-19.2 6.4-32 6.4-14.933 0-29.867-4.267-42.667-10.667-19.2-12.8-34.133-32-40.533-55.467 0-2.133 0-4.267 0-6.4 0-10.667 6.4-19.2 14.933-25.6l379.733-200.533c14.933-8.533 32-14.933 51.2-14.933s36.267 4.267 53.333 12.8l204.8 93.867 128-91.733c4.267-4.267 10.667-6.4 17.067-6.4s12.8 2.133 17.067 6.4c55.467 49.067 93.867 117.333 108.8 194.133 2.133 4.267 2.133 8.533 2.133 12.8 0 10.667-6.4 19.2-14.933 25.6v0zM488.533 433.067c134.4 0 243.2 108.8 243.2 243.2s-110.933 241.067-243.2 241.067c-134.4 0-243.2-108.8-243.2-243.2s108.8-241.067 243.2-241.067c0 0 0 0 0 0zM396.8 610.133c4.267 4.267 10.667 6.4 17.067 6.4s12.8-2.133 17.067-6.4c10.667-12.8 27.733-21.333 46.933-21.333 2.133 0 4.267 0 8.533 0 2.133 0 4.267 0 6.4 0 19.2 0 36.267 12.8 40.533 32 0 27.733-38.4 34.133-68.267 34.133-36.267 2.133-64 29.867-64 66.133 0 0 0 0 0 0s0 0 0 2.133c0 38.4 29.867 68.267 68.267 68.267h2.133v19.2c0 8.533 6.4 14.933 14.933 14.933 0 0 0 0 0 0 8.533 0 14.933-6.4 14.933-14.933s0 0 0 0v-19.2c21.333-2.133 38.4-12.8 53.333-23.467 4.267-4.267 6.4-10.667 6.4-17.067s-2.133-12.8-6.4-17.067c-4.267-4.267-10.667-6.4-17.067-6.4s-12.8 2.133-17.067 6.4c-10.667 8.533-25.6 14.933-40.533 14.933-2.133 0-2.133 0-4.267 0-12.8 0-23.467-10.667-23.467-21.333-2.133-21.333 49.067-21.333 49.067-21.333v0c44.8 0 81.067-36.267 83.2-81.067-2.133-44.8-36.267-78.933-81.067-81.067v-14.933c0-8.533-6.4-14.933-14.933-14.933v0c-8.533 0-14.933 6.4-14.933 14.933v0 14.933c-29.867 2.133-55.467 14.933-74.667 36.267-4.267 4.267-6.4 10.667-6.4 17.067s0 8.533 4.267 12.8v0z" />
<glyph unicode="&#xe915;" glyph-name="close" horiz-adv-x="597" d="M569.6 149.333c-6.4 0-12.8 4.267-17.067 6.4l-256 256-256-256c-8.533-10.667-25.6-10.667-34.133 0s-8.533 25.6 0 36.267l256 256-251.733 256c-8.533 8.533-8.533 23.467 0 32s23.467 8.533 32 0l256-256 256 256c10.667 8.533 25.6 8.533 36.267 0s10.667-25.6 0-34.133l-256-256 256-256c10.667-10.667 10.667-25.6 0-36.267-8.533 0-14.933-4.267-21.333-4.267z" />
<glyph unicode="&#xe916;" glyph-name="condo" horiz-adv-x="597" d="M576 853.333h-554.667c-12.8 0-21.333-8.533-21.333-21.333v-768c0-12.8 8.533-21.333 21.333-21.333h554.667c12.8 0 21.333 8.533 21.333 21.333v768c0 12.8-8.533 21.333-21.333 21.333zM554.667 85.333h-512v725.333h512v-725.333zM106.667 746.667h85.333v-64h-85.333v64zM106.667 618.667h85.333v-64h-85.333v64zM106.667 490.667h85.333v-64h-85.333v64zM106.667 362.667h85.333v-64h-85.333v64zM106.667 234.667h85.333v-64h-85.333v64zM256 746.667h85.333v-64h-85.333v64zM256 618.667h85.333v-64h-85.333v64zM256 490.667h85.333v-64h-85.333v64zM256 362.667h85.333v-64h-85.333v64zM256 234.667h85.333v-64h-85.333v64zM405.333 746.667h85.333v-64h-85.333v64zM405.333 618.667h85.333v-64h-85.333v64zM405.333 490.667h85.333v-64h-85.333v64zM405.333 362.667h85.333v-64h-85.333v64zM405.333 234.667h85.333v-64h-85.333v64z" />
<glyph unicode="&#xe917;" glyph-name="contactUs" horiz-adv-x="811" d="M789.333 238.72c13.459-11.794 21.911-29.016 21.911-48.213s-8.452-36.42-21.838-48.15c-21.407-21.396-42.74-39.743-61.087-61.076-21.957-24.323-53.599-39.544-88.796-39.544-5.247 0-10.415 0.338-15.483 0.994-60.013 3.893-115.868 20.886-165.288 48.117-113.882 56.348-211.534 133.813-290.149 227.756-59.798 69.076-108.162 147.728-142.533 233.497-17.346 41.327-26.291 82.969-26.291 126.699 0 4.136 0.080 8.253 0.239 12.349 1.721 28.345 14.745 53.936 34.67 72.080 22.486 21.41 44.032 44.023 66.432 66.423 11.769 13.103 28.766 21.308 47.68 21.308s35.911-8.205 47.628-21.249l53.599-53.606c17.067-17.067 35.413-34.347 52.48-52.48 13.823-11.812 22.53-29.263 22.53-48.747s-8.707-36.935-22.442-48.673l-65.581-65.14c-3.035-2.484-4.956-6.229-4.956-10.424 0-2.443 0.652-4.734 1.791-6.708 15.983-36.643 35.722-68.283 59.353-96.559 46.512-57.566 101.285-107.046 162.778-147.069 16.554-10.174 31.488-16.574 45.354-24.040 2.080-1.641 4.739-2.633 7.63-2.633 4.411 0 8.282 2.308 10.473 5.782 21.363 22.451 43.977 43.998 66.377 66.398 11.769 13.103 28.766 21.308 47.68 21.308s35.911-8.205 47.628-21.249c35.466-36.326 71.946-71.739 108.212-107.152z" />
<glyph unicode="&#xe918;" glyph-name="coverage" horiz-adv-x="768" d="M759.467 763.733c-2.133 2.133-8.533 4.267-12.8 4.267 0 0-2.133 0-2.133 0-14.933-2.133-34.133-4.267-53.333-4.267-115.2 0-217.6 46.933-292.267 125.867-4.267 4.267-8.533 6.4-14.933 6.4v0c0 0 0 0 0 0-6.4 0-10.667-2.133-14.933-6.4-74.667-76.8-179.2-125.867-296.533-125.867-17.067 0-34.133 0-51.2 2.133 2.133 0 0 0 0 0-12.8 0-21.333-8.533-21.333-21.333 0 0 0 0 0 0 0-552.533 189.867-648.533 373.333-742.4 4.267-2.133 6.4-2.133 10.667-2.133 0 0 0 0 0 0 4.267 0 6.4 0 10.667 2.133 183.467 96 373.333 196.267 373.333 744.533v0c0 6.4-2.133 12.8-8.533 17.067v0zM384 44.8c-174.933 89.6-337.067 179.2-341.333 676.267 8.533 0 19.2 0 29.867 0 119.467 0 230.4 46.933 311.467 123.733 78.933-76.8 187.733-123.733 307.2-123.733 12.8 0 23.467 0 36.267 2.133-6.4-492.8-168.533-586.667-343.467-678.4v0zM550.4 616.533l-136.533-108.8-29.867 238.933-25.6-243.2-140.8 108.8 108.8-134.4-234.667-29.867 241.067-25.6-113.067-138.667 140.8 108.8 23.467-236.8 29.867 236.8 136.533-110.933-110.933 142.933 245.333 23.467-238.933 29.867 104.533 138.667z" />
<glyph unicode="&#xe919;" glyph-name="coverageExtra" horiz-adv-x="768" d="M533.333 448c0-12.8-8.533-21.333-21.333-21.333h-106.667v-106.667c0-12.8-8.533-21.333-21.333-21.333s-21.333 8.533-21.333 21.333v106.667h-106.667c-12.8 0-21.333 8.533-21.333 21.333s8.533 21.333 21.333 21.333h106.667v106.667c0 12.8 8.533 21.333 21.333 21.333s21.333-8.533 21.333-21.333v-106.667h106.667c12.8 0 21.333-8.533 21.333-21.333zM768 746.667c0-548.267-189.867-648.533-373.333-744.533-4.267-2.133-6.4-2.133-10.667-2.133s-6.4 0-10.667 2.133c-183.467 93.867-373.333 189.867-373.333 742.4 0 0 0 0 0 0 0 12.8 8.533 21.333 21.333 21.333 0 0 2.133 0 2.133 0 14.933-2.133 32-2.133 49.067-2.133 117.333 0 221.867 49.067 296.533 125.867 4.267 4.267 8.533 6.4 14.933 6.4 0 0 0 0 0 0v0c6.4 0 10.667-2.133 14.933-6.4 72.533-76.8 177.067-125.867 292.267-125.867 19.2 0 36.267 2.133 55.467 4.267-2.133 0 0 0 0 0 10.667 0 21.333-8.533 21.333-21.333 0 0 0 0 0 0v0zM725.333 723.2c-10.667 0-21.333-2.133-34.133-2.133-119.467 0-228.267 46.933-307.2 123.733-81.067-76.8-189.867-123.733-311.467-123.733-10.667 0-21.333 0-29.867 0 4.267-494.933 166.4-586.667 341.333-676.267 174.933 91.733 337.067 185.6 341.333 678.4v0z" />
<glyph unicode="&#xe91a;" glyph-name="coverageMandatory" horiz-adv-x="768" d="M494.933 586.667l-155.733-234.667-66.133 66.133c-4.267 2.133-8.533 4.267-12.8 4.267-12.8 0-21.333-8.533-21.333-21.333 0-4.267 2.133-10.667 4.267-14.933l85.333-85.333c4.267-4.267 8.533-6.4 14.933-6.4 0 0 0 0 0 0h2.133c6.4 0 12.8 4.267 14.933 8.533l170.667 256c2.133 2.133 2.133 6.4 2.133 10.667 0 12.8-8.533 21.333-21.333 21.333-8.533 4.267-12.8 2.133-17.067-4.267v0zM759.467 763.733c-2.133 2.133-8.533 4.267-12.8 4.267 0 0-2.133 0-2.133 0-14.933-2.133-34.133-4.267-53.333-4.267-115.2 0-217.6 46.933-292.267 125.867-4.267 4.267-8.533 6.4-14.933 6.4v0c0 0 0 0 0 0-6.4 0-10.667-2.133-14.933-6.4-74.667-76.8-181.333-125.867-296.533-125.867-17.067 0-34.133 0-49.067 2.133 2.133 0 0 0 0 0-12.8 0-21.333-8.533-21.333-21.333 0 0 0 0 0 0-2.133-552.533 187.733-648.533 371.2-742.4 4.267-2.133 6.4-2.133 10.667-2.133 0 0 0 0 0 0 4.267 0 6.4 0 10.667 2.133 183.467 96 373.333 196.267 373.333 744.533v0c0 6.4-2.133 12.8-8.533 17.067v0zM384 44.8c-174.933 89.6-337.067 179.2-341.333 676.267 8.533 0 19.2 0 29.867 0 119.467 0 230.4 46.933 311.467 123.733 78.933-76.8 187.733-123.733 307.2-123.733 12.8 0 23.467 0 36.267 2.133-6.4-492.8-168.533-586.667-343.467-678.4v0z" />
<glyph unicode="&#xe91b;" glyph-name="coverageModify" horiz-adv-x="917" d="M571.733 174.933c-53.333-51.2-115.2-93.867-183.467-125.867-179.2 85.333-341.333 177.067-345.6 672 8.533 0 19.2 0 29.867 0 119.467 0 230.4 46.933 311.467 123.733 78.933-76.8 187.733-123.733 307.2-123.733 12.8 0 23.467 0 36.267 2.133-2.133-2.133-2.133-4.267-2.133-6.4 0-98.133-8.533-192-27.733-283.733 6.4 10.667 14.933 10.667 21.333 10.667l21.333 34.133c2.133 4.267 6.4 8.533 10.667 10.667 10.667 72.533 17.067 155.733 17.067 241.067 0 4.267 0 10.667 0 14.933 0 0 0 0 0 0 0 12.8-8.533 21.333-21.333 21.333 0 0-2.133 0-2.133 0-14.933-2.133-34.133-4.267-53.333-4.267-115.2 0-217.6 46.933-292.267 125.867-4.267 6.4-8.533 8.533-14.933 8.533v0c0 0 0 0 0 0-6.4 0-10.667-2.133-14.933-6.4-74.667-78.933-179.2-125.867-296.533-125.867-17.067 0-34.133 0-51.2 2.133 2.133 0 0 0 0 0-12.8 0-21.333-8.533-21.333-21.333 0 0 0 0 0 0 0-552.533 189.867-648.533 373.333-742.4 4.267-2.133 6.4-2.133 10.667-2.133 0 0 0 0 0 0 4.267 0 6.4 0 10.667 2.133 70.4 36.267 140.8 74.667 202.667 136.533l4.267 19.2c-6.4 6.4-10.667 10.667-14.933 17.067h-14.933zM537.6 202.667v0zM851.2 217.6c6.4 10.667 8.533 23.467 10.667 38.4l2.133 10.667 53.333 19.2-12.8 57.6-57.6-4.267-4.267 8.533c-8.533 12.8-17.067 23.467-27.733 32l-8.533 6.4 14.933 53.333-53.333 23.467-29.867-51.2h-10.667c-2.133 0-2.133 0-4.267 0-10.667 0-19.2-2.133-29.867-4.267h-2.133c-10.667-2.133-21.333-6.4-32-12.8l-8.533-4.267-49.067 36.267-40.533-42.667 38.4-46.933-2.133-8.533c-4.267-10.667-8.533-21.333-8.533-34.133l-2.133-10.667-57.6-21.333 12.8-57.6 59.733 6.4 6.4-8.533c6.4-10.667 12.8-19.2 21.333-25.6l8.533-8.533-17.067-61.867 53.333-21.333 29.867 53.333h10.667c2.133 0 6.4 0 8.533 0 10.667 0 21.333 2.133 29.867 2.133 10.667 2.133 21.333 4.267 32 8.533l8.533 4.267 46.933-34.133 40.533 42.667-36.267 44.8 6.4 10.667zM804.267 253.867c-8.533-36.267-42.667-64-81.067-64-46.933 0-83.2 36.267-83.2 83.2s36.267 83.2 83.2 83.2c6.4 0 12.8 0 19.2-2.133 36.267-8.533 64-42.667 64-81.067 0-6.4-2.133-12.8-2.133-19.2v0z" />
<glyph unicode="&#xe91c;" glyph-name="coverageSpecial" horiz-adv-x="768" d="M759.467 763.733c-2.133 2.133-8.533 4.267-12.8 4.267-2.133 0-2.133 0-4.267 0-14.933-2.133-34.133-4.267-51.2-4.267-115.2 0-219.733 49.067-292.267 125.867-4.267 4.267-8.533 6.4-14.933 6.4 0 0 0 0 0 0v0c0 0 0 0 0 0-6.4 0-10.667-2.133-14.933-6.4-74.667-76.8-179.2-125.867-296.533-125.867-17.067 0-34.133 2.133-51.2 4.267 2.133 0 0 0 0 0-6.4 0-10.667-2.133-14.933-6.4s-6.4-8.533-6.4-14.933c0-554.667 189.867-650.667 373.333-744.533 2.133-2.133 6.4-2.133 10.667-4.267 0 0 0 0 0 0 4.267 0 6.4 0 10.667 2.133 183.467 100.267 373.333 198.4 373.333 746.667 0 0 0 0 0 0 0 6.4-2.133 12.8-8.533 17.067v0zM384 46.933c-174.933 87.467-337.067 179.2-341.333 674.133 8.533 0 19.2 0 29.867 0 121.6 0 230.4 46.933 311.467 125.867 78.933-76.8 187.733-123.733 307.2-123.733 12.8 0 23.467 0 36.267 2.133-8.533-494.933-170.667-588.8-343.467-678.4v0zM661.333 680.533c-100.267 6.4-192 42.667-266.667 100.267-2.133 2.133-6.4 4.267-12.8 4.267s-8.533-2.133-12.8-4.267c-72.533-55.467-164.267-91.733-262.4-100.267-12.8 0-21.333-10.667-21.333-21.333 0 0 0 0 0 0 14.933-386.133 134.4-477.867 285.867-556.8 2.133-2.133 6.4-2.133 10.667-2.133s6.4 0 10.667 2.133c147.2 78.933 270.933 177.067 288 558.933 0 0 0 0 0 0 0 8.533-8.533 17.067-19.2 19.2v0zM512 426.667h-106.667v-106.667c0-12.8-8.533-21.333-21.333-21.333s-21.333 8.533-21.333 21.333v106.667h-106.667c-12.8 0-21.333 8.533-21.333 21.333s8.533 21.333 21.333 21.333h106.667v106.667c0 12.8 8.533 21.333 21.333 21.333s21.333-8.533 21.333-21.333v-106.667h106.667c12.8 0 21.333-8.533 21.333-21.333s-8.533-21.333-21.333-21.333z" />
<glyph unicode="&#xe91d;" glyph-name="FileAClaim" horiz-adv-x="471" d="M298.667 746.667h-298.667v-618.667h471.467v452.267l-172.8 166.4zM388.267 247.467h-309.333c-8.533 2.133-14.933 8.533-14.933 17.067s6.4 17.067 14.933 17.067h309.333c8.533-2.133 14.933-8.533 14.933-17.067s-6.4-14.933-14.933-17.067v0zM388.267 352h-309.333c-8.533 0-14.933 8.533-14.933 17.067s6.4 17.067 14.933 17.067h309.333c8.533-2.133 14.933-8.533 14.933-17.067s-6.4-17.067-14.933-17.067v0zM388.267 454.4h-309.333c-8.533 0-14.933 8.533-14.933 17.067s6.4 17.067 14.933 17.067h309.333c8.533-2.133 14.933-8.533 14.933-17.067s-6.4-14.933-14.933-17.067v0zM285.867 580.267v132.267l140.8-132.267h-140.8z" />
<glyph unicode="&#xe91e;" glyph-name="GetAQuote02" d="M573.867 497.067c10.667-14.933 19.2-34.133 21.333-53.333 0 0 0-2.133 0-2.133 0-12.8-10.667-23.467-23.467-23.467 0 0 0 0 0 0-12.8 0-23.467 10.667-25.6 23.467-2.133 17.067-10.667 29.867-21.333 40.533-4.267 6.4-10.667 8.533-17.067 8.533s-12.8-2.133-17.067-8.533c-2.133-4.267-4.267-6.4-4.267-10.667 0-6.4 2.133-10.667 6.4-14.933l19.2-23.467c38.4-51.2 19.2-93.867 2.133-110.933-44.8-42.667-89.6-19.2-115.2 0l-10.667-10.667c-2.133-2.133-6.4-4.267-10.667-4.267s-8.533 2.133-10.667 4.267c-2.133 2.133-4.267 6.4-4.267 10.667s2.133 8.533 4.267 10.667l10.667 10.667c-17.067 19.2-27.733 44.8-27.733 72.533 0 0 0 2.133 0 2.133s0 0 0 0c0 12.8 10.667 23.467 23.467 23.467v0c12.8 0 23.467-10.667 25.6-23.467 0 0 0-2.133 0-4.267 0-19.2 8.533-36.267 21.333-49.067 10.667-10.667 36.267-32 57.6-10.667s-8.533 51.2-23.467 74.667c-21.333 29.867-23.467 64 2.133 89.6 12.8 12.8 29.867 21.333 51.2 21.333 19.2 0 34.133-6.4 46.933-19.2l12.8 12.8c2.133 2.133 6.4 4.267 10.667 4.267s8.533-2.133 10.667-4.267c2.133-2.133 4.267-6.4 4.267-10.667s-2.133-8.533-4.267-10.667l-14.933-14.933zM689.067 648.533c-8.533 6.4-17.067 8.533-27.733 8.533-25.6 0-46.933-21.333-46.933-46.933s21.333-46.933 46.933-46.933c17.067 0 29.867 8.533 38.4 21.333 4.267 8.533 8.533 17.067 8.533 25.6 0 17.067-6.4 29.867-19.2 38.4v0zM1024 448c0-283.733-228.267-512-512-512s-512 228.267-512 512 228.267 512 512 512 512-228.267 512-512zM804.267 486.4l-6.4 230.4c0 14.933-12.8 27.733-29.867 29.867l-230.4 6.4c-19.2 0-36.267-8.533-49.067-19.2l-313.6-315.733c-4.267-4.267-8.533-12.8-8.533-19.2s2.133-14.933 8.533-19.2l256-256c4.267-4.267 12.8-8.533 19.2-8.533s14.933 2.133 19.2 8.533l313.6 315.733c12.8 10.667 19.2 27.733 21.333 46.933v0z" />
<glyph unicode="&#xe91f;" glyph-name="GetAQuote" horiz-adv-x="661" d="M652.8 729.6c0 17.067-14.933 29.867-29.867 29.867l-238.933 8.533c-19.2 0-36.267-8.533-51.2-19.2l-324.267-328.533c-4.267-4.267-8.533-12.8-8.533-21.333s4.267-14.933 8.533-21.333l264.533-264.533c4.267-4.267 12.8-8.533 21.333-8.533s14.933 4.267 21.333 8.533l326.4 326.4c12.8 12.8 19.2 29.867 19.2 49.067l-8.533 241.067zM420.267 420.267c0 0 0 0 0 0-14.933 0-25.6 10.667-27.733 23.467-2.133 17.067-10.667 32-23.467 42.667-4.267 6.4-10.667 8.533-17.067 8.533s-12.8-2.133-17.067-8.533c-2.133-4.267-4.267-8.533-4.267-12.8 0-6.4 2.133-10.667 6.4-14.933l19.2-25.6c40.533-53.333 19.2-98.133 4.267-115.2-44.8-44.8-91.733-19.2-117.333-2.133l-10.667-10.667c-2.133-2.133-6.4-4.267-10.667-4.267s-8.533 2.133-10.667 4.267c-2.133 2.133-4.267 6.4-4.267 10.667s2.133 8.533 4.267 10.667l10.667 10.667c-19.2 19.2-29.867 46.933-29.867 76.8 0 0 0 2.133 0 2.133s0 0 0 0c0 14.933 10.667 25.6 25.6 25.6v0c14.933 0 25.6-10.667 25.6-25.6 0 0 0 0 0 0 0-21.333 10.667-40.533 25.6-53.333 12.8-12.8 38.4-32 59.733-10.667s-12.8 53.333-29.867 78.933c-21.333 32-23.467 66.133 2.133 93.867 12.8 14.933 32 23.467 51.2 23.467s36.267-6.4 49.067-19.2l12.8 12.8c2.133 2.133 6.4 4.267 10.667 4.267s8.533-2.133 10.667-4.267c2.133-2.133 4.267-6.4 4.267-10.667s-2.133-8.533-4.267-10.667l-14.933-14.933c12.8-14.933 19.2-34.133 21.333-55.467 0 0 0-2.133 0-2.133 2.133-17.067-8.533-27.733-21.333-27.733v0zM554.667 593.067c-8.533-12.8-23.467-21.333-40.533-21.333-27.733 0-49.067 21.333-49.067 49.067s21.333 49.067 49.067 49.067c10.667 0 19.2-4.267 27.733-8.533 12.8-8.533 21.333-23.467 21.333-40.533 0-10.667-4.267-21.333-8.533-27.733v0z" />
<glyph unicode="&#xe920;" glyph-name="creditProtection" horiz-adv-x="939" d="M938.667 339.2c0 2.133-2.133 6.4-4.267 8.533s-4.267 4.267-8.533 4.267h-34.133v23.467c0 19.2-4.267 36.267-12.8 51.2v322.133c0 23.467-19.2 42.667-42.667 42.667h-793.6c-23.467 0-42.667-19.2-42.667-42.667v-450.133c0-23.467 19.2-42.667 42.667-42.667h554.667v-78.933c0-19.2 8.533-36.267 21.333-49.067s29.867-21.333 49.067-21.333h198.4c0 0 0 0 2.133 0 38.4 0 70.4 32 70.4 70.4 0 0 0 0 0 2.133v160zM59.733 729.6h763.733v-68.267h-763.733v68.267zM59.733 313.6v238.933h763.733v-72.533c-12.8 6.4-27.733 8.533-44.8 8.533 0 0 0 0 0 0h-21.333c-64 0-115.2-51.2-115.2-115.2v-23.467h-32c-6.4 0-10.667-4.267-10.667-10.667v-23.467l-539.733-2.133zM712.533 373.333c0 23.467 19.2 42.667 42.667 42.667h19.2c0 0 2.133 0 2.133 0 23.467 0 42.667-19.2 42.667-42.667 0 0 0 0 0 0v-23.467h-108.8c2.133 0 2.133 23.467 2.133 23.467z" />
<glyph unicode="&#xe921;" glyph-name="creditcards" horiz-adv-x="896" d="M851.2 746.667h-806.4c-24.694-0.12-44.68-20.106-44.8-44.788v-486.412c0.12-24.694 20.106-44.68 44.788-44.8h806.412c24.694 0.12 44.68 20.106 44.8 44.788v486.412c-0.12 24.694-20.106 44.68-44.788 44.8zM853.333 215.467c-0.102-1.135-0.999-2.031-2.124-2.133l-806.409-0.001c-1.135 0.102-2.031 0.999-2.133 2.124l-0.001 253.876h810.667zM42.667 597.333v104.533c0.102 1.135 0.999 2.031 2.124 2.133l806.409 0.001c1.135-0.102 2.031-0.999 2.133-2.124l0.001-104.542z" />
<glyph unicode="&#xe922;" glyph-name="discount" horiz-adv-x="853" d="M750.933 448l96 117.333c2.133 4.267 4.267 8.533 4.267 12.8 0 10.667-6.4 19.2-14.933 21.333l-147.2 40.533 8.533 151.467c0 0 0 0 0 2.133 0 12.8-8.533 21.333-21.333 21.333-2.133 0-6.4 0-8.533-2.133l-142.933-55.467-83.2 128c0 6.4-8.533 10.667-14.933 10.667s-14.933-4.267-17.067-10.667l-83.2-128-142.933 55.467c-2.133 0-4.267 2.133-8.533 2.133-12.8 0-21.333-8.533-21.333-21.333 0 0 0 0 0-2.133l10.667-151.467-147.2-38.4c-8.533-2.133-14.933-10.667-14.933-21.333 0-4.267 2.133-10.667 4.267-12.8l96-119.467-96-117.333c-4.267-4.267-6.4-8.533-6.4-12.8 0-10.667 6.4-19.2 14.933-21.333l147.2-38.4-8.533-151.467c0 0 0 0 0-2.133 0-12.8 8.533-21.333 21.333-21.333 2.133 0 6.4 0 8.533 2.133l142.933 55.467 83.2-128c4.267-6.4 10.667-10.667 17.067-10.667s14.933 4.267 17.067 10.667l83.2 128 142.933-55.467c2.133 0 4.267-2.133 8.533-2.133 12.8 0 21.333 8.533 21.333 21.333 0 0 0 0 0 2.133l-8.533 151.467 147.2 38.4c8.533 2.133 14.933 10.667 14.933 21.333 0 4.267-2.133 10.667-4.267 12.8l-98.133 117.333zM339.2 426.667h-104.533c-12.8 0-21.333 8.533-21.333 21.333s8.533 21.333 21.333 21.333h104.533c12.8 0 21.333-8.533 21.333-21.333s-8.533-21.333-21.333-21.333zM588.8 324.267c-2.133-2.133-6.4-6.4-8.533-8.533-17.067-12.8-38.4-21.333-59.733-23.467v-17.067c0 0 0 0 0 0 0-10.667-8.533-19.2-19.2-19.2v0c-10.667 0-19.2 8.533-19.2 19.2 0 0 0 0 0 0v17.067c-34.133 2.133-66.133 17.067-87.467 40.533-4.267 6.4-8.533 12.8-8.533 21.333 0 17.067 14.933 32 32 32 8.533 0 14.933-2.133 21.333-8.533 14.933-14.933 34.133-23.467 55.467-23.467 2.133 0 6.4 0 8.533 0s2.133 0 4.267 0c14.933 0 27.733 4.267 38.4 10.667 6.4 6.4 10.667 14.933 10.667 23.467 0 0 0 2.133 0 2.133s0 0 0 0c0 8.533-4.267 14.933-10.667 19.2-8.533 8.533-21.333 12.8-34.133 12.8l-36.267 6.4c-19.2 4.267-38.4 12.8-51.2 23.467-14.933 12.8-23.467 32-23.467 51.2 0 2.133 0 2.133 0 4.267 0 0 0 0 0 2.133 0 44.8 36.267 81.067 81.067 83.2v21.333c0 10.667 8.533 19.2 19.2 19.2 6.4 0 10.667-2.133 14.933-6.4s6.4-8.533 6.4-12.8c0 0 0 0 0 0v-23.467c25.6-4.267 46.933-14.933 64-29.867 6.4-4.267 8.533-12.8 10.667-21.333 0 0 0 0 0 0 0-8.533-2.133-14.933-8.533-21.333s-14.933-10.667-23.467-10.667c0 0 0 0 0 0-8.533 0-14.933 2.133-21.333 8.533-12.8 8.533-29.867 14.933-46.933 14.933-2.133 0-4.267 0-6.4 0 0 0 0 0-2.133 0-14.933 0-25.6-10.667-25.6-23.467 2.133-10.667 10.667-19.2 21.333-19.2 0 0 0 0 2.133 0l34.133-6.4c25.6-2.133 46.933-12.8 64-27.733 19.2-14.933 34.133-38.4 34.133-66.133 0 0 0-2.133 0-2.133-2.133-21.333-12.8-44.8-29.867-61.867v0z" />
<glyph unicode="&#xe923;" glyph-name="distributionGuide" horiz-adv-x="644" d="M516.267 490.667h-384c-11.782 0-21.333-9.551-21.333-21.333s9.551-21.333 21.333-21.333h384c11.782 0 21.333 9.551 21.333 21.333s-9.551 21.333-21.333 21.333zM516.267 362.667h-384c-11.782 0-21.333-9.551-21.333-21.333s9.551-21.333 21.333-21.333h384c11.782 0 21.333 9.551 21.333 21.333s-9.551 21.333-21.333 21.333zM516.267 234.667h-384c-11.782 0-21.333-9.551-21.333-21.333s9.551-21.333 21.333-21.333h384c11.782 0 21.333 9.551 21.333 21.333s-9.551 21.333-21.333 21.333zM638.080 656.64l-190.080 190.293c-3.876 3.959-9.275 6.413-15.248 6.413-0.264 0-0.528-0.005-0.79-0.014l-385.242 0.001c-24.297-0.121-43.947-19.845-43.947-44.159 0-0.075 0-0.15 0.001-0.225l-2.773-721.268c-0.005-0.254-0.008-0.554-0.008-0.854 0-24.317 19.654-44.043 43.944-44.159h554.678c24.297 0.121 43.947 19.845 43.947 44.159 0 0.075 0 0.15-0.001 0.225v554.655c0.046 0.527 0.073 1.141 0.073 1.76 0 4.992-1.715 9.583-4.587 13.218zM599.467 85.333h-554.667c-0.281-0.256-0.655-0.412-1.067-0.412-0.876 0-1.586 0.71-1.586 1.586 0 0.464 0.2 0.882 0.518 1.172l2.775 721.068c-0.013 0.079-0.020 0.17-0.020 0.262 0 0.798 0.548 1.469 1.289 1.655l360.545 0.003v-159.36c0 0 0 0 0-0.001 0-18.027 14.613-32.64 32.64-32.64 0.075 0 0.15 0 0.225 0.001h161.482v-531.413c0.095-0.191 0.15-0.415 0.15-0.653 0-0.825-0.669-1.493-1.493-1.493-0.293 0-0.566 0.084-0.796 0.23z" />
<glyph unicode="&#xe924;" glyph-name="downCaret" horiz-adv-x="640" d="M322.133 262.4c-12.8 0-25.6 4.267-34.133 12.8l-273.067 270.933c-19.2 19.2-19.2 46.933 0 66.133s46.933 19.2 66.133 0l236.8-236.8 238.933 236.8c19.2 19.2 46.933 19.2 68.267 0s19.2-46.933 0-66.133l-270.933-270.933c-6.4-6.4-19.2-12.8-32-12.8z" />
<glyph unicode="&#xe925;" glyph-name="downloadCertificate" horiz-adv-x="683" d="M480 345.6c4.267-4.267 6.4-8.533 6.4-12.8s-2.133-10.667-6.4-12.8l-117.333-121.6c-4.267-4.267-8.533-4.267-12.8-4.267s-10.667 2.133-12.8 4.267l-132.267 121.6c-4.267 4.267-6.4 8.533-6.4 14.933 0 10.667 8.533 19.2 19.2 19.2 6.4 0 10.667-2.133 12.8-6.4l100.267-91.733v258.133c0 10.667 8.533 19.2 19.2 19.2s19.2-8.533 19.2-19.2v-258.133l87.467 87.467c4.267 4.267 8.533 6.4 12.8 6.4s8.533-2.133 10.667-4.267v0zM682.667 610.133v-435.2c0-72.533-59.733-132.267-132.267-132.267h-416c0 0 0 0 0 0-74.667 0-134.4 59.733-134.4 132.267v533.333c0 72.533 59.733 132.267 132.267 132.267 0 0 0 0 0 0h328.533c0 0 0 0 0 0 2.133 0 4.267 0 8.533-2.133v0c2.133 0 4.267-2.133 4.267-4.267v0l200.533-211.2c6.4-2.133 8.533-8.533 8.533-12.8v0zM482.133 631.467h134.4l-134.4 142.933v-142.933zM644.267 174.933v418.133h-181.333c-10.667 0-19.2 8.533-19.2 19.2v0 189.867h-309.333c-53.333 0-96-42.667-96-96v-531.2c0-53.333 42.667-96 96-96v0h416c51.2 2.133 93.867 44.8 93.867 96v0 0z" />
<glyph unicode="&#xe926;" glyph-name="earthquake" horiz-adv-x="619" d="M0 42.667l324.267 349.867-102.4 115.2 217.6 187.733-38.4 34.133 217.6 166.4-151.467-162.133 38.4-29.867-110.933-136.533 115.2-121.6-209.067-403.2h-300.8z" />
<glyph unicode="&#xe927;" glyph-name="error" horiz-adv-x="811" d="M405.333 853.333c-223.859 0-405.333-181.474-405.333-405.333s181.474-405.333 405.333-405.333c223.859 0 405.333 181.474 405.333 405.333s-181.474 405.333-405.333 405.333zM405.333 219.093c-23.564 0-42.667 19.103-42.667 42.667s19.103 42.667 42.667 42.667c23.564 0 42.667-19.103 42.667-42.667s-19.103-42.667-42.667-42.667zM430.72 354.56c0.148-0.967 0.233-2.083 0.233-3.219 0-12.371-10.029-22.4-22.4-22.4-1.136 0-2.252 0.085-3.342 0.248-0.844-0.163-1.96-0.248-3.096-0.248-12.371 0-22.4 10.029-22.4 22.4 0 1.136 0.085 2.252 0.248 3.342l-24.548 245.424c-0.024 0.576-0.038 1.253-0.038 1.932 0 26.981 21.872 48.853 48.853 48.853 0.389 0 0.776-0.005 1.162-0.014 0.527 0.026 1.213 0.040 1.902 0.040 26.981 0 48.853-21.872 48.853-48.853 0-0.689-0.014-1.375-0.043-2.057z" />
<glyph unicode="&#xe928;" glyph-name="facebook" horiz-adv-x="265" d="M172.8 192v232.533h78.933l12.8 91.733h-91.733v57.6c0 25.6 6.4 44.8 44.8 44.8h49.067v81.067c-21.333 2.133-44.8 4.267-70.4 4.267-70.4 0-117.333-42.667-117.333-119.467v-66.133h-78.933v-91.733h78.933v-234.667h93.867z" />
<glyph unicode="&#xe929;" glyph-name="faqs" horiz-adv-x="896" d="M896 728.747v60.587h-384c-26.415-4.157-48.902-18.388-63.812-38.56-15.286 20.172-37.773 34.403-63.634 38.488l-384.554 0.072v-60.16c0-1.28 0-2.347 0-3.413v-555.093c0-1.28 0-2.347 0-3.413v-60.587h384c26.415 4.157 48.902 18.388 63.812 38.56 15.286-20.172 37.773-34.403 63.634-38.488l384.554-0.072v60.587c0 1.28 0 2.347 0 3.413v554.667c0 1.28 0 2.347 0 3.413zM426.667 192c-7.932-19.536-23.131-34.734-42.156-42.483l-320.511-0.184c-11.782 0-21.333 9.551-21.333 21.333v554.667c0 11.782 9.551 21.333 21.333 21.333h320c19.536-7.932 34.734-23.131 42.483-42.156zM685.44 324.693c-0.17-7.286-3.519-13.757-8.709-18.102-5.638-4.956-13.030-7.961-21.124-7.961-0.537 0-1.071 0.013-1.602 0.039-0.357-0.022-0.863-0.033-1.372-0.033-8.394 0-16.089 2.993-22.077 7.969-5.43 4.272-8.963 10.859-9.116 18.276v11.758c0.153 7.442 3.687 14.029 9.122 18.308 5.982 4.97 13.677 7.962 22.072 7.962 0.509 0 1.015-0.011 1.518-0.033 0.384 0.026 0.918 0.039 1.455 0.039 8.094 0 15.486-3.005 21.122-7.961 5.192-4.346 8.541-10.817 8.71-18.074zM749.44 496.64c-3.823-7.421-8.597-13.762-14.266-19.174-5.43-5.185-11.357-9.892-17.69-14.031-7.016-4.441-12.655-8.587-17.995-13.075-4.764-3.968-9.066-8.745-12.617-14.065-3.244-5.277-5.076-11.376-5.076-17.903 0-0.391 0.007-0.78 0.020-1.168l-0.002-7.197c-0.417-5.975-3.032-11.27-7.034-15.141-4.723-5.189-11.469-8.454-18.978-8.539h-1.722c-0.378-0.019-0.821-0.030-1.267-0.030-6.903 0-13.198 2.602-17.958 6.878-4.586 3.836-7.532 9.551-7.655 15.957-0.028 0.867-0.044 1.861-0.044 2.859 0 11.383 2.049 22.287 5.799 32.363 3.386 8.416 7.983 16.236 13.584 23.218 5.112 6.27 11 11.887 17.518 16.702 6.449 4.665 12.209 9.145 17.329 13.412 4.69 3.883 8.822 8.151 12.45 12.83 3.084 4.206 4.852 9.254 4.852 14.714 0 0.367-0.008 0.731-0.024 1.094 0.079 0.721 0.123 1.618 0.123 2.526 0 7.89-3.321 15.005-8.641 20.023-6.065 4.705-13.765 7.534-22.127 7.534-0.701 0-1.398-0.020-2.089-0.059-0.22 0.008-0.593 0.010-0.966 0.010-5.651 0-11.194-0.468-16.59-1.366-4.133-0.73-8.359-2.141-12.267-4.093-3.762-1.957-7.21-4.52-10.181-7.553-3.714-3.806-7.147-7.915-10.246-12.277-3.774-5.050-8.652-8.619-14.302-10.498-2.739-0.948-5.661-1.461-8.703-1.461-4.712 0-9.136 1.232-12.967 3.391-5.617 2.329-10.011 7.002-11.983 12.794-0.651 2.391-1 4.963-1 7.617s0.349 5.226 1.003 7.674c1.759 6.071 4.536 11.544 8.152 16.348 5.097 7.177 11.238 13.386 18.239 18.486 8.75 6.385 18.564 11.585 29.088 15.276 12.59 4.325 26.184 6.682 40.329 6.682 1.101 0 2.199-0.014 3.293-0.043 0.504 0.018 1.289 0.027 2.076 0.027 13.933 0 27.242-2.671 39.443-7.53 10.12-4.148 19.309-10.598 26.752-18.681 6.895-7.412 12.281-16.235 15.678-25.988 3.134-9.558 4.85-19.963 4.85-30.769 0-0.015 0-0.030 0-0.044 0.023-0.614 0.036-1.337 0.036-2.064 0-9.328-2.138-18.157-5.951-26.023zM362.667 576h-256c-11.782 0-21.333-9.551-21.333-21.333s9.551-21.333 21.333-21.333h256c11.782 0 21.333 9.551 21.333 21.333s-9.551 21.333-21.333 21.333zM362.667 469.333h-256c-11.782 0-21.333-9.551-21.333-21.333s9.551-21.333 21.333-21.333h256c11.782 0 21.333 9.551 21.333 21.333s-9.551 21.333-21.333 21.333zM362.667 362.667h-256c-11.782 0-21.333-9.551-21.333-21.333s9.551-21.333 21.333-21.333h256c11.782 0 21.333 9.551 21.333 21.333s-9.551 21.333-21.333 21.333z" />
<glyph unicode="&#xe92a;" glyph-name="feedback" horiz-adv-x="816" d="M810.667 645.547l-202.027 201.6c-3.856 3.834-9.171 6.204-15.040 6.204s-11.184-2.37-15.041-6.205l-471.892-471.039c-1.426-1.531-2.638-3.288-3.571-5.207l-0.056-1.407-101.973-303.787c-0.712-2.037-1.123-4.385-1.123-6.829 0-11.782 9.551-21.333 21.333-21.333 2.385 0 4.678 0.391 6.82 1.113l302.783 100.436h1.493c2.128 0.971 3.958 2.186 5.565 3.643l-0.018-0.016 472.747 472.533c3.834 3.856 6.204 9.171 6.204 15.040s-2.37 11.184-6.205 15.041zM149.333 123.733l-64 62.293 45.44 135.68 152.747-152.747zM324.907 189.653l-170.667 170.667 293.76 296.107 170.667-170.667zM634.667 500.053l-170.667 170.667 36.693 36.693 170.667-170.667zM686.507 551.893l-170.667 170.667 78.507 78.507 170.667-170.667z" />
<glyph unicode="&#xe92b;" glyph-name="geolocation" horiz-adv-x="811" d="M518.4 571.733c-29.867 27.733-70.4 42.667-113.067 42.667-93.867 0-168.533-74.667-168.533-168.533s74.667-168.533 168.533-168.533c0 0 0 0 0 0h10.667c89.6 6.4 157.867 78.933 157.867 168.533 0 51.2-21.333 96-55.467 125.867v0zM501.333 362.667c-23.467-25.6-57.6-42.667-93.867-42.667-70.4 0-125.867 57.6-125.867 125.867 0 66.133 53.333 121.6 119.467 125.867h6.4c0 0 0 0 0 0 70.4 0 125.867-55.467 125.867-125.867-2.133-32-12.8-61.867-32-83.2v0zM789.333 469.333h-85.333c-12.8 147.2-130.133 264.533-277.333 273.067v89.6c0 12.8-8.533 21.333-21.333 21.333s-21.333-8.533-21.333-21.333v-87.467c-147.2-10.667-264.533-128-275.2-273.067l-87.467-2.133c-12.8 0-21.333-8.533-21.333-21.333s8.533-21.333 21.333-21.333h85.333c10.667-149.333 128-268.8 277.333-279.467v-83.2c0-12.8 8.533-21.333 21.333-21.333s21.333 8.533 21.333 21.333v83.2c149.333 10.667 266.667 130.133 277.333 277.333h85.333c12.8 0 21.333 8.533 21.333 21.333s-8.533 23.467-21.333 23.467zM597.333 275.2c-42.667-49.067-106.667-81.067-174.933-85.333h-8.533c-2.133 2.133-4.267 2.133-8.533 2.133s-6.4 0-8.533-2.133c0 0-2.133 0-2.133 0-140.8 0-256 115.2-256 256s113.067 253.867 251.733 256h14.933c0 0 0 0 2.133 0 140.8 0 256-115.2 256-256 0-64-25.6-123.733-66.133-170.667v0z" />
<glyph unicode="&#xe92c;" glyph-name="Login" horiz-adv-x="811" d="M320 326.187c109.867 0 155.093 113.067 155.093 198.613s-33.493 173.867-155.093 173.867c-117.333 0-155.093-88.32-155.093-173.867s40.747-198.613 155.093-198.613zM597.333 219.52l-168.533 65.493c-19.49 7.215-42.001 11.627-65.47 12.156l-85.57 0.004c-23.115-0.617-45.028-4.944-65.431-12.404l-169.235-65.676c-24.987-11.081-42.198-35.474-42.666-63.94l-0.001-58.513c0.118-29.612 23.97-53.613 53.513-53.973h535.074c29.76 0.121 53.853 24.213 53.973 53.962v58.465c-1.119 29.128-19.507 53.693-45.169 63.831zM785.28 715.733v0 34.56c0 55.199-44.748 99.947-99.947 99.947s-99.947-44.748-99.947-99.947v-34.773h-2.987c-0.254 0.009-0.553 0.014-0.853 0.014-14.845 0-26.88-12.035-26.88-26.88 0-0.005 0-0.010 0-0.014v-145.493c0.12-14.679 11.987-26.547 26.655-26.667h201.611c0.254-0.009 0.553-0.014 0.853-0.014 14.845 0 26.88 12.035 26.88 26.88 0 0.005 0 0.010 0 0.014v145.279c-0.070 14.158-10.988 25.743-24.863 26.874zM739.84 715.733h-112v33.707c0 31.046 25.168 56.213 56.213 56.213s56.213-25.168 56.213-56.213z" />
<glyph unicode="&#xe92d;" glyph-name="growingFamily" horiz-adv-x="964" d="M133.547 688.64c-0.656 3.739-1.031 8.043-1.031 12.436 0 18.067 6.344 34.652 16.926 47.649l-0.109-0.138c11.118 13.729 27.973 22.433 46.86 22.433 0.701 0 1.399-0.012 2.094-0.036l-0.101 0.003c0.718 0.031 1.561 0.048 2.407 0.048 18.895 0 35.755-8.711 46.784-22.335l0.089-0.113c10.259-12.784 16.465-29.203 16.465-47.073 0-4.549-0.402-9.003-1.173-13.331l0.067 0.457c-3.050-32.78-30.422-58.241-63.74-58.241-0.091 0-0.182 0-0.274 0.001h0.014c-0.458-0.012-0.997-0.018-1.538-0.018-33.325 0-60.701 25.47-63.723 58.006l-0.019 0.253zM485.12 360.32v0c0.051 0 0.112 0 0.173 0 22.212 0 40.46 16.974 42.481 38.658l0.013 0.169c0.482 2.616 0.757 5.625 0.757 8.699 0 11.924-4.145 22.88-11.074 31.505l0.076-0.098c-7.412 9.158-18.652 14.965-31.248 14.965-0.564 0-1.126-0.012-1.685-0.035l0.080 0.003c-0.479 0.020-1.040 0.032-1.605 0.032-12.596 0-23.837-5.807-31.189-14.89l-0.059-0.075c-6.852-8.527-10.997-19.483-10.997-31.407 0-3.074 0.276-6.084 0.803-9.006l-0.046 0.306c2.027-21.859 20.278-38.839 42.495-38.839 0.361 0 0.72 0.004 1.078 0.013l-0.053-0.001zM765.44 630.187c0.135-0.001 0.295-0.002 0.455-0.002 28.412 0 52.5 18.514 60.857 44.136l0.128 0.453c2.504 7.578 3.949 16.3 3.949 25.36 0 6.13-0.661 12.105-1.916 17.858l0.101-0.551c-4.867 26.062-24.992 46.33-50.582 51.347l-0.405 0.066c-3.75 0.564-8.077 0.886-12.48 0.886s-8.73-0.322-12.96-0.944l0.48 0.058c-25.995-5.084-46.119-25.352-50.925-51.017l-0.062-0.396c-1.154-5.202-1.815-11.177-1.815-17.307 0-9.060 1.444-17.782 4.115-25.95l-0.167 0.59c8.486-26.074 32.573-44.587 60.985-44.587 0.085 0 0.17 0 0.255 0h-0.013zM957.44 410.24c-22.503 24.405-41.442 52.561-55.7 83.329l-0.833 2.004c-8.533 17.28-16.853 34.56-26.24 50.987-19.217 38.708-58.189 65-103.373 65.706l-0.094 0.001h-9.6c-45.277-0.707-84.25-26.999-103.16-65.026l-0.306-0.681c-9.6-16.64-17.92-33.92-26.24-50.987-13.88-29.474-30.337-54.873-49.698-77.733l0.418 0.507c-2.299 3.231-6.024 5.317-10.237 5.333h-0.003c-0.005 0-0.011 0-0.017 0-6.608 0-12.007-5.181-12.355-11.702l-0.001-0.031c0-5.333 0-10.667 0-16-1.745-17.474-8.627-33.074-19.093-45.571l0.107 0.131c-2.715-3.033-5.5-5.818-8.432-8.444l-0.101-0.089c-1.28-1.28-2.56-2.133-4.053-3.2-8.131 3.804-17.565 6.581-27.471 7.844l-0.475 0.049c-2.072 0.13-4.494 0.204-6.933 0.204s-4.861-0.074-7.264-0.22l0.33 0.016c-2.072 0.13-4.494 0.204-6.933 0.204s-4.861-0.074-7.263-0.22l0.33 0.016c-10.31-1.336-19.668-4.11-28.323-8.14l0.59 0.247-5.333 2.56c-3.129 2.729-5.983 5.516-8.675 8.454l-0.072 0.080c-10.36 12.366-17.242 27.966-18.958 45.090l-0.028 0.35c0 5.333 0 10.667 0 16-0.277 6.496-5.611 11.657-12.15 11.657-1.537 0-3.007-0.285-4.36-0.805l0.083 0.028c-3.602 46.682-21.194 88.672-48.538 122.441l0.325-0.415c-29.196 36.082-71.584 60.488-119.723 65.847l-0.811 0.073c-8.162 1.112-17.7 1.807-27.379 1.919l-0.141 0.001c-1.639 0.041-3.568 0.064-5.504 0.064-8.129 0-16.162-0.411-24.079-1.212l0.996 0.082c-48.949-5.432-91.338-29.838-120.269-65.583l-0.264-0.337c-31.358-39.331-50.315-89.755-50.315-144.607 0-3.238 0.066-6.46 0.197-9.665l-0.015 0.459c0.917-12.797 11.524-22.831 24.474-22.831 0.171 0 0.341 0.002 0.511 0.005h-0.025c13.097 0.207 23.732 10.47 24.53 23.396l0.003 0.071c0 10.667 0 21.333 2.133 32.213 3.504 34.945 17.265 66.143 38.188 91.143l-0.214-0.263c6.827 8.107 15.147 14.933 22.613 21.333l1.493-1.067v-251.307q0-85.333 0-170.667c-0.002-0.124-0.003-0.27-0.003-0.416 0-8.762 4.554-16.461 11.424-20.858l0.099-0.059c3.611-2.381 8.040-3.798 12.8-3.798s9.189 1.417 12.888 3.853l-0.088-0.055c7.669 4.081 12.801 12.022 12.801 21.162 0 0.060 0 0.12-0.001 0.18v-0.009q0 85.333 0 172.16c-0.012 0.318-0.018 0.692-0.018 1.067 0 17.202 13.945 31.147 31.147 31.147 0.006 0 0.013 0 0.019 0h6.399c0.005 0 0.012 0 0.018 0 17.202 0 31.147-13.945 31.147-31.147 0-0.375-0.007-0.749-0.020-1.121l0.002 0.054q0-85.333 0-172.16c0-0.051-0.001-0.111-0.001-0.171 0-9.14 5.132-17.081 12.672-21.1l0.129-0.063c3.611-2.381 8.040-3.798 12.8-3.798s9.189 1.417 12.888 3.853l-0.088-0.055c6.969 4.457 11.523 12.155 11.523 20.918 0 0.146-0.001 0.292-0.004 0.438v-0.022q0 85.333 0 170.667v252.16l1.493 1.067c7.68-7.467 15.787-14.293 22.613-21.333 20.745-24.793 34.514-56.071 37.918-90.398l0.056-0.695c1.28-10.667 1.493-21.333 2.133-32.213 0.801-12.996 11.436-23.26 24.513-23.466h0.020c7.824 0.095 14.783 3.714 19.377 9.341l0.036 0.046c4.071-16.437 11.467-30.762 21.476-42.844l-0.143 0.177c8.512-10.358 19.133-18.658 31.241-24.305l0.546-0.229v-127.787q0-42.667 0-85.333c-0.004-0.125-0.007-0.271-0.007-0.418 0-4.383 2.279-8.234 5.717-10.432l0.050-0.030c1.805-1.191 4.020-1.899 6.4-1.899s4.595 0.709 6.444 1.926l-0.044-0.027c3.84 2.039 6.411 6.012 6.411 10.587 0 0.178-0.004 0.356-0.012 0.532l0.001-0.025q0 42.667 0 85.333c-0.004 0.127-0.006 0.277-0.006 0.427 0 8.601 6.972 15.573 15.573 15.573 0.002 0 0.004 0 0.006 0h3.2c0.002 0 0.004 0 0.006 0 8.601 0 15.573-6.972 15.573-15.573 0-0.15-0.002-0.3-0.006-0.449v0.022q0-42.667 0-85.333c-0.007-0.151-0.011-0.329-0.011-0.507 0-4.574 2.571-8.548 6.346-10.555l0.065-0.031c1.805-1.191 4.020-1.899 6.4-1.899s4.595 0.709 6.444 1.926l-0.044-0.027c3.488 2.228 5.767 6.079 5.767 10.462 0 0.147-0.003 0.293-0.008 0.439l0.001-0.021q0 42.667 0 85.333c0 32.853 0 86.4 0 128 12.653 5.876 23.275 14.175 31.664 24.379l0.123 0.154c8.555 10.462 15.213 22.85 19.224 36.376l0.189 0.744c3.928-2.577 8.741-4.111 13.913-4.111 7.496 0 14.24 3.222 18.922 8.357l0.018 0.020c27.424 29.611 50.217 64.022 66.905 101.738l0.935 2.369 2.347 4.907c0-101.76 0-329.387 0-373.333-0.002-0.124-0.003-0.27-0.003-0.416 0-8.762 4.554-16.461 11.424-20.858l0.099-0.059c3.611-2.381 8.040-3.798 12.8-3.798s9.189 1.417 12.888 3.853l-0.088-0.055c7.669 4.081 12.801 12.022 12.801 21.162 0 0.060 0 0.12-0.001 0.18v-0.009q0 85.333 0 172.16c-0.012 0.318-0.018 0.692-0.018 1.067 0 17.202 13.945 31.147 31.147 31.147 0.006 0 0.013 0 0.019 0h4.906c0.005 0 0.012 0 0.018 0 17.202 0 31.147-13.945 31.147-31.147 0-0.375-0.007-0.749-0.020-1.121l0.002 0.054q0-85.333 0-172.16c0-0.051-0.001-0.111-0.001-0.171 0-9.14 5.132-17.081 12.672-21.1l0.129-0.063c3.611-2.381 8.040-3.798 12.8-3.798s9.189 1.417 12.888 3.853l-0.088-0.055c6.969 4.457 11.523 12.155 11.523 20.918 0 0.146-0.001 0.292-0.004 0.438v-0.022c0 43.947 0 271.573 0 373.333l2.347-4.907c17.623-40.084 40.416-74.495 68.062-104.349l-0.222 0.242c4.71-5.278 11.533-8.586 19.128-8.586 6.304 0 12.075 2.278 16.536 6.057l-0.037-0.031c5.437 4.455 8.879 11.17 8.879 18.688 0 6.499-2.572 12.397-6.753 16.732l0.007-0.007z" />
<glyph unicode="&#xe92e;" glyph-name="hamburger" horiz-adv-x="672" d="M622.933 622.933h-576c-25.6 0-46.933 21.333-46.933 46.933s21.333 46.933 46.933 46.933h576c25.6 0 46.933-21.333 46.933-46.933s-19.2-46.933-46.933-46.933zM622.933 401.067h-576c-25.6 0-46.933 21.333-46.933 46.933s21.333 46.933 46.933 46.933h576c25.6 0 46.933-21.333 46.933-46.933s-19.2-46.933-46.933-46.933zM622.933 174.933h-576c-25.6 0-46.933 21.333-46.933 46.933s21.333 46.933 46.933 46.933h576c25.6 0 46.933-21.333 46.933-46.933s-19.2-46.933-46.933-46.933z" />
<glyph unicode="&#xe92f;" glyph-name="handicap" horiz-adv-x="747" d="M507.733 217.6c-36.267-104.533-132.267-177.067-247.467-177.067-142.933 0-260.267 117.333-260.267 262.4 0 66.133 23.467 125.867 64 172.8 6.4 6.4 14.933 10.667 23.467 10.667 17.067 0 32-14.933 32-32 0-8.533-2.133-14.933-8.533-21.333-29.867-34.133-49.067-78.933-49.067-128 0-108.8 87.467-196.267 196.267-196.267 85.333 0 157.867 55.467 185.6 130.133 4.267 14.933 17.067 23.467 29.867 23.467 17.067 0 32-14.933 32-32 4.267-6.4 4.267-10.667 2.133-12.8v0zM744.533 206.933c-4.267 12.8-17.067 21.333-29.867 21.333-4.267 0-8.533 0-10.667-2.133l-72.533-27.733-108.8 243.2h-302.933l-12.8 76.8h185.6c17.067 0 32 14.933 32 32s-14.933 32-32 32h-198.4c-6.4 40.533-12.8 81.067-19.2 113.067h2.133c44.8 0 78.933 36.267 78.933 78.933s-36.267 78.933-78.933 78.933-78.933-36.267-78.933-78.933c0-2.133 0-2.133 0-4.267 0 0 0-2.133 0-2.133s0-2.133 0-2.133 0-4.267 0-6.4c4.267-25.6 17.067-102.4 59.733-354.133l4.267-25.6h320l115.2-264.533 130.133 49.067c12.8 4.267 21.333 17.067 21.333 29.867-2.133 4.267-2.133 8.533-4.267 12.8v0z" />
<glyph unicode="&#xe930;" glyph-name="help" horiz-adv-x="811" d="M405.333 853.333c-223.859 0-405.333-181.474-405.333-405.333s181.474-405.333 405.333-405.333c223.859 0 405.333 181.474 405.333 405.333s-181.474 405.333-405.333 405.333zM438.4 274.773c-0.167-9.851-4.672-18.617-11.683-24.492-7.54-6.693-17.459-10.756-28.326-10.756-0.71 0-1.415 0.017-2.117 0.052-0.56-0.037-1.332-0.057-2.109-0.057-11.184 0-21.443 3.966-29.444 10.569-7.293 5.696-12.054 14.504-12.294 24.431l-0.001 15.612c0.24 9.966 5.001 18.774 12.303 24.48 7.994 6.593 18.252 10.559 29.436 10.559 0.777 0 1.549-0.019 2.316-0.057 0.494 0.035 1.2 0.052 1.91 0.052 10.867 0 20.786-4.063 28.319-10.753 6.885-5.866 11.301-14.541 11.476-24.252zM523.733 502.613c-5.132-9.978-11.546-18.503-19.163-25.779-7.33-6.883-15.35-13.14-23.912-18.627-9.455-6.017-17.043-11.636-24.224-17.72-6.429-5.375-12.214-11.838-16.975-19.038-4.372-7.104-6.84-15.31-6.84-24.092 0-0.496 0.008-0.991 0.024-1.483l-0.002-9.741c-0.352-8.406-3.961-15.906-9.59-21.324-6.33-6.904-15.349-11.234-25.382-11.316h-2.148c-0.087-0.001-0.189-0.001-0.291-0.001-9.247 0-17.681 3.481-24.062 9.204-6.138 5.125-10.12 12.721-10.418 21.254-0.036 1.151-0.056 2.447-0.056 3.747 0 15.286 2.758 29.928 7.802 43.455 4.548 11.3 10.726 21.798 18.252 31.167 6.869 8.395 14.791 15.911 23.562 22.336 8.679 6.224 16.359 12.198 23.399 17.958 6.365 5.217 11.968 10.956 16.887 17.254 4.204 5.676 6.621 12.514 6.621 19.917 0 0.582-0.015 1.161-0.044 1.736 0.096 0.901 0.148 2.042 0.148 3.196 0 10.639-4.476 20.232-11.647 27-8.135 6.313-18.466 10.11-29.683 10.11-0.896 0-1.787-0.024-2.672-0.072-0.356 0.011-0.922 0.015-1.489 0.015-7.566 0-14.986-0.624-22.212-1.824-5.528-0.945-11.189-2.803-16.429-5.386-4.98-2.619-9.553-6.035-13.497-10.069-5.009-5.101-9.631-10.603-13.807-16.447-5.071-6.742-11.625-11.504-19.209-13.992-3.38-1.065-6.951-1.634-10.656-1.634-6.376 0-12.358 1.685-17.526 4.634-7.501 3.058-13.368 9.274-15.981 16.99-0.889 3.239-1.367 6.729-1.367 10.332s0.477 7.093 1.373 10.412c2.373 7.874 6.018 14.973 10.727 21.226 6.788 9.625 14.978 17.95 24.322 24.792 11.701 8.814 24.823 16.023 38.925 21.204 17.002 5.901 35.385 9.114 54.518 9.114 1.080 0 2.157-0.010 3.232-0.031 0.906 0.031 2.162 0.048 3.423 0.048 18.513 0 36.198-3.541 52.417-9.982 13.573-5.541 25.897-14.166 35.884-24.982 9.345-10.028 16.628-21.986 21.187-35.213 4.25-12.866 6.59-26.878 6.609-41.433 0-0.029 0-0.053 0-0.076 0-13.457-3.314-26.141-9.171-37.279z" />
<glyph unicode="&#xe931;" glyph-name="home" horiz-adv-x="939" d="M917.333 853.333h-448c-12.8 0-21.333-8.533-21.333-21.333v-258.133l-85.333 85.333c-23.467 23.467-42.667 23.467-66.133 0l-296.533-296.533h78.933v-298.667c0-12.8 8.533-21.333 21.333-21.333h817.067c12.8 0 21.333 8.533 21.333 21.333v768c0 12.8-8.533 21.333-21.333 21.333zM384 345.6h-128c-6.4 0-10.667-4.267-10.667-10.667v-249.6h-123.733v300.8l209.067 206.933 202.667-194.133 6.4-8.533v-305.067h-147.2v249.6c0 6.4-4.267 10.667-8.533 10.667v0zM896 85.333h-311.467v85.333h76.8v149.333h-76.8v64h76.8v149.333h-106.667v-64l-64 64v277.333h405.333v-725.333zM661.333 746.667h-106.667v-149.333h106.667v149.333zM832 746.667h-106.667v-149.333h106.667v149.333zM832 533.333h-106.667v-149.333h106.667v149.333zM832 320h-106.667v-149.333h106.667v149.333z" />
<glyph unicode="&#xe932;" glyph-name="homepage" horiz-adv-x="787" d="M786.773 443.947l-94.933 93.227v211.627c0 8.837-7.163 16-16 16h-59.093c-8.837 0-16-7.163-16-16v-122.453l-168.96 165.973c-27.52 27.52-50.56 28.16-77.653 0l-354.133-347.52h94.507v-359.467c0-11.782 9.551-21.333 21.333-21.333h554.667c11.782 0 21.333 9.551 21.333 21.333v358.613zM499.84 106.667v295.467c0 11.782-9.551 21.333-21.333 21.333h-170.667c-11.782 0-21.333-9.551-21.333-21.333v-295.467h-149.333v359.253l256 248.747 256-240.427v-367.573z" />
<glyph unicode="&#xe933;" glyph-name="hours" horiz-adv-x="811" d="M405.333 812.8c202.667 0 364.8-164.267 364.8-364.8 0-217.6-164.267-364.8-364.8-364.8-202.667 0-366.933 162.133-366.933 364.8s164.267 364.8 366.933 364.8v0zM405.333 853.333c-224 0-405.333-181.333-405.333-405.333s181.333-405.333 405.333-405.333c224 0 405.333 181.333 405.333 405.333s-181.333 405.333-405.333 405.333v0zM405.333 714.667c14.933 0 29.867 12.8 29.867 29.867s-14.933 27.733-29.867 27.733c-14.933 0-29.867-12.8-29.867-29.867 0-14.933 12.8-27.733 29.867-27.733v0zM405.333 119.467c14.933 0 29.867 12.8 29.867 27.733s-12.8 27.733-29.867 27.733c-14.933 0-29.867-12.8-29.867-27.733s12.8-27.733 29.867-27.733v0zM672 445.867c0-14.933 12.8-29.867 27.733-29.867s27.733 12.8 27.733 29.867c0 14.933-12.8 29.867-27.733 29.867s-27.733-14.933-27.733-29.867zM74.667 445.867c0-14.933 12.8-29.867 29.867-29.867s29.867 12.8 29.867 29.867c0 14.933-12.8 29.867-29.867 29.867s-29.867-14.933-29.867-29.867zM268.8 678.4c8.533 4.267 14.933 14.933 14.933 25.6 0 14.933-12.8 29.867-29.867 29.867s-29.867-12.8-29.867-29.867c0-4.267 2.133-10.667 4.267-14.933 4.267-8.533 14.933-14.933 25.6-14.933 6.4 0 10.667 2.133 14.933 4.267v0zM567.467 164.267c8.533 4.267 14.933 14.933 14.933 25.6 0 14.933-12.8 27.733-29.867 27.733s-29.867-12.8-29.867-27.733c0-4.267 2.133-10.667 4.267-14.933 4.267-8.533 14.933-14.933 25.6-14.933 6.4 0 10.667 0 14.933 4.267v0zM168.533 580.267c2.133 4.267 4.267 8.533 4.267 14.933 0 14.933-12.8 29.867-29.867 29.867s-29.867-12.8-29.867-29.867c0-10.667 6.4-19.2 14.933-25.6 4.267-2.133 8.533-4.267 14.933-4.267 12.8 0 21.333 6.4 25.6 14.933v0zM684.8 281.6c2.133 4.267 4.267 8.533 4.267 14.933 0 14.933-12.8 29.867-27.733 29.867s-27.733-12.8-27.733-29.867c0-10.667 6.4-19.2 14.933-25.6 4.267-2.133 8.533-4.267 14.933-4.267s17.067 6.4 21.333 14.933v0zM578.133 689.067c2.133 4.267 4.267 8.533 4.267 14.933 0 14.933-12.8 29.867-29.867 29.867s-29.867-12.8-29.867-29.867c0-10.667 6.4-19.2 14.933-25.6 4.267-2.133 8.533-4.267 12.8-4.267 12.8 0 21.333 6.4 27.733 14.933v0zM279.467 172.8c2.133 4.267 4.267 8.533 4.267 14.933 0 14.933-12.8 27.733-29.867 27.733s-29.867-12.8-29.867-27.733c0-10.667 6.4-19.2 14.933-25.6 4.267-2.133 8.533-4.267 14.933-4.267 12.8 0 21.333 6.4 25.6 14.933v0zM674.133 569.6c8.533 4.267 14.933 14.933 14.933 25.6 0 14.933-12.8 29.867-27.733 29.867s-27.733-12.8-27.733-29.867c0-4.267 2.133-10.667 4.267-14.933 4.267-8.533 14.933-14.933 25.6-14.933 2.133 0 6.4 2.133 10.667 4.267v0zM157.867 270.933c8.533 4.267 14.933 14.933 14.933 25.6 0 14.933-12.8 29.867-29.867 29.867s-29.867-12.8-29.867-29.867c0-4.267 2.133-10.667 4.267-14.933 4.267-8.533 14.933-12.8 23.467-12.8s12.8 0 17.067 2.133v0zM578.133 362.667l-149.333 89.6 98.133 140.8c2.133 4.267 4.267 8.533 4.267 12.8 0 12.8-10.667 21.333-21.333 21.333-6.4 0-12.8-4.267-17.067-8.533l-110.933-157.867c0 0 0-2.133-2.133-4.267 0-2.133-2.133-2.133-2.133-4.267 0 0 0-2.133 0-2.133s0-2.133 0-2.133c0 0 0 0 0-2.133s0-4.267 2.133-6.4c0-2.133 0-2.133 2.133-4.267 0-2.133 2.133-2.133 2.133-2.133s2.133-2.133 2.133-2.133v0l168.533-102.4c4.267-2.133 8.533-4.267 12.8-4.267 12.8 0 21.333 8.533 21.333 21.333 0 6.4-4.267 14.933-10.667 17.067v0z" />
<glyph unicode="&#xe934;" glyph-name="identityTheft" horiz-adv-x="768" d="M23.467 657.067c6.4 0 12.8 2.133 17.067 8.533 85.333 89.6 204.8 145.067 337.067 145.067 2.133 0 4.267 0 6.4 0s4.267 0 6.4 0c132.267 0 253.867-53.333 341.333-140.8 4.267-4.267 10.667-8.533 17.067-8.533 12.8 0 21.333 8.533 21.333 21.333 0 4.267-2.133 10.667-4.267 14.933-96 96-228.267 155.733-373.333 155.733-4.267 0-6.4 0-10.667 0-2.133 0-4.267 0-8.533 0-145.067 0-277.333-61.867-369.067-160-4.267-4.267-4.267-8.533-4.267-14.933 2.133-10.667 10.667-21.333 23.467-21.333 0 0 0 0 0 0v0zM12.8 471.467c2.133-2.133 6.4-2.133 8.533-2.133 8.533 0 17.067 6.4 19.2 12.8 2.133 2.133 93.867 221.867 341.333 221.867 241.067 0 341.333-213.333 345.6-221.867 4.267-6.4 10.667-10.667 19.2-10.667 12.8 0 21.333 8.533 21.333 21.333 0 2.133 0 4.267-2.133 8.533 0 2.133-115.2 247.467-384 247.467-277.333-2.133-379.733-247.467-379.733-249.6-2.133-2.133-2.133-6.4-2.133-8.533 0-8.533 6.4-17.067 12.8-19.2v0zM738.133 349.867c-25.6 68.267-125.867 290.133-354.133 290.133-273.067-2.133-320-292.267-320-296.533 0 0 0-2.133 0-2.133 0-12.8 10.667-21.333 21.333-21.333s19.2 8.533 21.333 19.2c8.533 49.067 27.733 93.867 51.2 132.267 42.667 74.667 125.867 125.867 219.733 125.867 2.133 0 4.267 0 8.533 0 200.533 0 290.133-200.533 313.6-262.4 2.133-8.533 4.267-17.067 4.267-27.733 0-19.2-6.4-38.4-14.933-53.333-14.933-14.933-34.133-25.6-57.6-25.6-8.533 0-17.067 2.133-25.6 4.267-38.4 10.667-49.067 32-68.267 70.4-6.4 14.933-14.933 29.867-25.6 49.067-46.933 74.667-104.533 76.8-128 74.667-32-2.133-59.733-19.2-76.8-44.8-27.733-42.667-29.867-113.067-4.267-196.267 2.133-4.267 32-102.4 91.733-157.867 4.267-4.267 8.533-6.4 14.933-6.4 12.8 0 21.333 8.533 21.333 21.333 0 6.4-2.133 10.667-6.4 14.933-55.467 49.067-83.2 138.667-83.2 140.8-21.333 70.4-21.333 130.133 0 160 10.667 14.933 25.6 23.467 44.8 25.6s55.467-2.133 87.467-55.467c10.667-17.067 17.067-32 23.467-44.8 21.333-40.533 38.4-76.8 96-91.733 10.667-4.267 23.467-6.4 38.4-6.4 36.267 0 70.4 17.067 91.733 42.667 14.933 21.333 23.467 49.067 23.467 76.8-2.133 17.067-4.267 32-8.533 44.8v0zM213.333 298.667c0 8.533 4.267 194.133 170.667 194.133 153.6 0 213.333-177.067 213.333-179.2 2.133-8.533 10.667-14.933 21.333-14.933 12.8 0 21.333 8.533 21.333 21.333 0 2.133 0 4.267-2.133 6.4-2.133 8.533-70.4 206.933-256 206.933-166.4 0-211.2-153.6-213.333-234.667 0-10.667 0-25.6 0-38.4 0-72.533 8.533-140.8 23.467-209.067 0-4.267 8.533-10.667 19.2-10.667 0 0 0 0 2.133 0h4.267c10.667 2.133 17.067 10.667 17.067 21.333 0 2.133 0 4.267 0 4.267-12.8 59.733-21.333 128-21.333 198.4 0 12.8 0 25.6 0 34.133v0zM605.867 83.2c-138.667 57.6-179.2 219.733-179.2 219.733-2.133 8.533-10.667 14.933-21.333 14.933-12.8 0-21.333-8.533-21.333-21.333 0-2.133 0-2.133 0-4.267 2.133-6.4 44.8-183.467 204.8-249.6 2.133 0 4.267 0 6.4 0 12.8 0 21.333 8.533 21.333 21.333 0 8.533-4.267 14.933-10.667 19.2v0z" />
<glyph unicode="&#xe935;" glyph-name="inbox" horiz-adv-x="768" d="M768 364.8c0 2.133-2.133 6.4-4.267 8.533 0 0 0 2.133-2.133 2.133l-149.333 172.8c-2.133 4.267-8.533 6.4-14.933 6.4 0 0 0 0 0 0h-426.667c0 0 0 0 0 0-6.4 0-12.8-2.133-17.067-6.4l-149.333-172.8c0 0 0-2.133-2.133-2.133 0-2.133-2.133-6.4-2.133-8.533 0 0 0 0 0-2.133s0 0 0-2.133v-232.533c0-12.8 8.533-21.333 21.333-21.333h725.333c12.8 0 21.333 8.533 21.333 21.333v232.533c0 2.133 0 2.133 0 4.267 0-2.133 0-2.133 0 0v0zM179.2 512h407.467l113.067-130.133h-213.333c-12.8 0-21.333-8.533-21.333-21.333 0-2.133 0-2.133 0-4.267 0-44.8-36.267-83.2-83.2-83.2s-83.2 36.267-83.2 83.2c0 2.133 0 2.133 0 4.267 0 10.667-8.533 21.333-21.333 21.333h-213.333l115.2 130.133zM725.333 149.333h-682.667v189.867h217.6c10.667-59.733 61.867-102.4 123.733-102.4s113.067 44.8 123.733 102.4h217.6v-189.867z" />
<glyph unicode="&#xe936;" glyph-name="information" horiz-adv-x="811" d="M405.333 860.8c-223.859 0-405.333-181.474-405.333-405.333s181.474-405.333 405.333-405.333c223.859 0 405.333 181.474 405.333 405.333s-181.474 405.333-405.333 405.333zM455.893 271.787c0-25.803-20.917-46.72-46.72-46.72s-46.72 20.917-46.72 46.72v200.96c0 25.803 20.917 46.72 46.72 46.72s46.72-20.917 46.72-46.72zM409.6 552.533c-27.596 0.121-49.92 22.52-49.92 50.133 0 27.688 22.445 50.133 50.133 50.133s50.133-22.445 50.133-50.133c0 0 0 0 0 0 0-27.688-22.445-50.133-50.133-50.133-0.075 0-0.15 0-0.225 0z" />
<glyph unicode="&#xe937;" glyph-name="investing" horiz-adv-x="830" d="M125.867 364.8l123.733 93.867v-352h-123.733v258.133zM375.467 106.667h123.733v332.8l-123.733 36.267v-369.067zM802.133 789.333h-136.533c-14.933-2.133-25.6-14.933-25.6-27.733 0-14.933 12.8-29.867 29.867-29.867 2.133 0 2.133 0 4.267 0h59.733l-196.267-196.267-234.667 78.933c-4.267 2.133-8.533 4.267-14.933 4.267s-12.8-2.133-17.067-6.4l-262.4-202.667c-6.4-4.267-8.533-12.8-8.533-21.333 0-14.933 12.8-27.733 27.733-27.733 6.4 0 14.933 2.133 19.2 6.4l245.333 189.867 236.8-78.933c4.267-2.133 8.533-4.267 14.933-4.267 8.533 0 14.933 2.133 21.333 8.533l209.067 209.067v-59.733c0-14.933 12.8-27.733 27.733-27.733s27.733 12.8 27.733 27.733v128c0 0 0 0 0 0 0 17.067-12.8 29.867-27.733 29.867v0 0zM625.067 106.667h123.733v484.267l-123.733-123.733v-360.533z" />
<glyph unicode="&#xe938;" glyph-name="languagesSpoken" horiz-adv-x="721" d="M243.2 546.133c29.867-6.4 66.133-10.667 102.4-10.667v-115.2c-34.133 0-68.267-4.267-102.4-8.533-2.133 23.467-4.267 51.2-4.267 76.8 0 0 0 0 0 0 0 19.2 2.133 40.533 4.267 59.733v-2.133zM345.6 270.933v128c-34.133 0-66.133-2.133-98.133-8.533 23.467-66.133 57.6-113.067 98.133-119.467v0zM232.533 386.133c-23.467-6.4-44.8-12.8-64-21.333 32-42.667 74.667-76.8 125.867-91.733-29.867 29.867-53.333 68.267-61.867 113.067v0zM292.267 704c-57.6-17.067-102.4-55.467-130.133-106.667 17.067-10.667 40.533-19.2 61.867-25.6 10.667 51.2 34.133 96 68.267 132.267v0zM366.933 708.267v-151.467c36.267 0 70.4 4.267 102.4 10.667-19.2 76.8-55.467 132.267-102.4 140.8v0zM217.6 488.533c0 21.333 2.133 42.667 4.267 64-27.733 4.267-51.2 12.8-72.533 25.6-10.667-27.733-17.067-57.6-17.067-89.6 0-38.4 8.533-74.667 25.6-104.533 19.2 10.667 40.533 17.067 64 23.467 0 23.467-4.267 53.333-4.267 81.067v0zM247.467 567.467c29.867-6.4 64-10.667 98.133-10.667v151.467c-44.8-8.533-83.2-64-98.133-140.8v0zM494.933 488.533c0 0 0 0 0 0 0-32-2.133-59.733-8.533-87.467 25.6-4.267 46.933-10.667 68.267-21.333 14.933 32 25.6 68.267 25.6 108.8 0 32-6.4 64-19.2 91.733-19.2-12.8-42.667-21.333-68.267-27.733 2.133-19.2 2.133-40.533 2.133-64v0zM422.4 704c34.133-34.133 55.467-78.933 64-128 25.6 2.133 46.933 10.667 68.267 21.333-29.867 49.067-74.667 87.467-132.267 106.667v0zM452.267 140.8l-381.867-102.4 96 147.2c-100.267 66.133-166.4 177.067-166.4 305.067 0 198.4 162.133 360.533 360.533 360.533 166.4 0 307.2-113.067 347.733-266.667 8.533-29.867 12.8-61.867 12.8-93.867 0-168.533-113.067-309.333-266.667-352l-2.133 2.133zM601.6 488.533c0 134.4-110.933 245.333-245.333 245.333-136.533 0-245.333-108.8-245.333-245.333s110.933-245.333 245.333-245.333c0 0 0 0 2.133 0 134.4 0 243.2 110.933 243.2 245.333 0 0 0 0 0 0v0zM418.133 273.067c51.2 14.933 93.867 46.933 123.733 89.6-17.067 8.533-36.267 17.067-57.6 21.333-12.8-44.8-34.133-81.067-66.133-110.933v0zM366.933 398.933v-128c40.533 6.4 74.667 53.333 93.867 117.333-27.733 6.4-59.733 10.667-93.867 10.667v0zM473.6 490.667c0 0 0 0 0 0 0 19.2-2.133 40.533-4.267 59.733-29.867-8.533-66.133-12.8-102.4-12.8v-115.2c36.267 0 68.267-4.267 102.4-10.667 2.133 21.333 4.267 49.067 4.267 78.933v0 0z" />
<glyph unicode="&#xe939;" glyph-name="leftCaret" horiz-adv-x="367" d="M320 128c-12.8 0-25.6 4.267-34.133 12.8l-273.067 275.2c-8.533 8.533-12.8 21.333-12.8 32s6.4 25.6 12.8 34.133l273.067 273.067c19.2 19.2 46.933 19.2 66.133 0s19.2-46.933 0-66.133l-236.8-241.067 236.8-236.8c19.2-19.2 19.2-46.933 0-68.267-10.667-8.533-19.2-14.933-32-14.933z" />
<glyph unicode="&#xe93a;" glyph-name="life" horiz-adv-x="855" d="M846.933 633.6c-25.6 87.467-104.533 151.467-198.4 151.467-8.533 0-19.2 0-27.733-2.133-89.6-12.8-134.4-81.067-192-140.8-66.133 68.267-102.4 130.133-194.133 142.933-8.533 2.133-17.067 2.133-27.733 2.133-93.867 0-172.8-64-198.4-149.333-6.4-19.2-8.533-38.4-8.533-57.6 0-51.2 14.933-98.133 42.667-138.667h134.4l49.067 136.533c4.267 10.667 14.933 19.2 25.6 19.2 0 0 2.133 0 2.133 0 12.8 0 23.467-8.533 25.6-19.2l42.667-147.2 32 59.733c4.267 8.533 14.933 14.933 25.6 14.933 0 0 0 0 2.133 0 0 0 0 0 0 0 10.667 0 19.2-4.267 23.467-12.8l32-49.067 53.333 110.933c4.267 10.667 14.933 17.067 25.6 17.067 0 0 0 0 0 0v0c10.667 0 21.333-8.533 25.6-19.2l53.333-140.8 32 61.867c4.267 8.533 14.933 14.933 25.6 14.933 0 0 0 0 0 0h183.467c12.8 25.6 19.2 57.6 19.2 89.6 0 19.2-4.267 38.4-8.533 55.467v0zM424.533 61.867v0zM614.4 326.4c-4.267-8.533-14.933-14.933-25.6-14.933 0 0 0 0-2.133 0v0c-10.667 0-21.333 8.533-25.6 19.2l-49.067 138.667-42.667-93.867c-4.267-8.533-14.933-17.067-25.6-17.067 0 0 0 0 0 0-10.667 0-19.2 4.267-23.467 12.8l-36.267 51.2-42.667-78.933c-4.267-8.533-14.933-14.933-25.6-14.933 0 0-2.133 0-2.133 0v0c-10.667 2.133-21.333 8.533-23.467 19.2l-38.4 130.133-27.733-72.533c-4.267-10.667-14.933-19.2-25.6-19.2h-117.333c78.933-100.267 206.933-202.667 341.333-324.267 157.867 142.933 305.067 256 379.733 369.067h-134.4l-53.333-104.533z" />
<glyph unicode="&#xe93b;" glyph-name="location" horiz-adv-x="578" d="M290.133 411.733c-76.8 0-138.667 61.867-138.667 138.667s61.867 138.667 138.667 138.667 138.667-61.867 138.667-138.667-61.867-138.667-138.667-138.667zM290.133 42.667c0 0 290.133 360.533 290.133 520.533-2.133 160-130.133 290.133-290.133 290.133s-290.133-130.133-290.133-290.133c0-160 288-520.533 290.133-520.533v0z" />
<glyph unicode="&#xe93c;" glyph-name="location-coverage" horiz-adv-x="768" d="M386.133 428.8c-40.533 0-72.533 32-72.533 72.533s32 72.533 72.533 72.533c40.533 0 72.533-32 72.533-72.533s-32-72.533-72.533-72.533v0zM386.133 234.667c0 0 151.467 189.867 151.467 273.067s-68.267 151.467-151.467 151.467-151.467-68.267-151.467-151.467c0-83.2 151.467-273.067 151.467-273.067v0zM761.6 763.733c-4.267 2.133-8.533 4.267-14.933 4.267-2.133 0-2.133 0-4.267 0-14.933-2.133-34.133-4.267-51.2-4.267-115.2 0-217.6 49.067-292.267 125.867-4.267 4.267-8.533 6.4-14.933 6.4v0c0 0 0 0 0 0-6.4 0-10.667-2.133-14.933-6.4-74.667-76.8-179.2-125.867-296.533-125.867-17.067 0-34.133 0-51.2 2.133 2.133 0 0 0 0 0-12.8 0-21.333-8.533-21.333-21.333 0 0 0 0 0 0 0-552.533 189.867-648.533 373.333-742.4 4.267-2.133 6.4-2.133 10.667-2.133 0 0 0 0 0 0 4.267 0 6.4 0 10.667 2.133 183.467 96 373.333 196.267 373.333 744.533 0 0 0 0 0 0 0 6.4-2.133 12.8-6.4 17.067v0zM384 46.933c-174.933 87.467-337.067 179.2-341.333 674.133 8.533 0 19.2 0 29.867 0 121.6 0 230.4 46.933 311.467 123.733 78.933-76.8 187.733-123.733 307.2-123.733 12.8 0 23.467 0 36.267 2.133-6.4-492.8-168.533-586.667-343.467-676.267v0z" />
<glyph unicode="&#xe93d;" glyph-name="locationFeatures" horiz-adv-x="853" d="M174.933 437.333c-46.933 0-83.2 38.4-83.2 83.2s38.4 83.2 83.2 83.2 83.2-38.4 83.2-83.2-38.4-83.2-83.2-83.2zM174.933 213.333c0 0 174.933 217.6 174.933 313.6 0 2.133 0 6.4 0 8.533 0 96-78.933 174.933-174.933 174.933s-174.933-76.8-174.933-172.8c0-2.133 0-6.4 0-8.533 0-96 174.933-315.733 174.933-315.733v0zM840.533 663.467h-403.2c-6.4 0-10.667-4.267-10.667-10.667v-23.467c0-6.4 4.267-10.667 10.667-10.667h403.2c6.4 0 10.667 4.267 10.667 10.667v23.467c0 0 0 0 0 0 2.133 6.4-4.267 10.667-10.667 10.667v0zM840.533 531.2h-403.2c-6.4 0-10.667-4.267-10.667-10.667v-23.467c0-6.4 4.267-10.667 10.667-10.667h403.2c0 0 0 0 0 0 6.4 0 10.667 4.267 10.667 10.667v0 23.467c2.133 6.4-2.133 10.667-10.667 10.667 2.133 0 2.133 0 0 0v0zM840.533 407.467h-403.2c-6.4 0-10.667-4.267-10.667-10.667v-23.467c0-6.4 4.267-10.667 10.667-10.667h403.2c6.4 0 10.667 4.267 10.667 10.667v23.467c0 0 0 0 0 0 2.133 6.4-4.267 10.667-10.667 10.667v0 0zM840.533 275.2h-403.2c-6.4 0-10.667-4.267-10.667-10.667v-23.467c0-6.4 4.267-10.667 10.667-10.667h403.2c0 0 0 0 0 0 6.4 0 10.667 4.267 10.667 10.667v0 23.467c2.133 6.4-2.133 10.667-10.667 10.667 2.133 0 2.133 0 0 0v0z" />
<glyph unicode="&#xe93e;" glyph-name="logout" horiz-adv-x="527" d="M475.733 512h-2.133v72.533c0 113.067-91.733 206.933-206.933 206.933s-206.933-91.733-206.933-206.933v0-72.533h-4.267c-29.867 0-55.467-25.6-55.467-55.467v-300.8c0-29.867 25.6-55.467 55.467-55.467v0h416c29.867 0 55.467 25.6 55.467 55.467v0 300.8c0 29.867-23.467 53.333-51.2 55.467v0zM262.4 243.2c0 0 0 0 0 0-38.4 0-66.133 29.867-66.133 66.133s29.867 66.133 66.133 66.133c36.267 0 66.133-29.867 66.133-66.133v0c-2.133-36.267-29.867-66.133-66.133-66.133v0zM381.867 509.867v0h-234.667v72.533c0 64 51.2 115.2 115.2 115.2s115.2-51.2 115.2-115.2l4.267-72.533z" />
<glyph unicode="&#xe93f;" glyph-name="maintenance" horiz-adv-x="841" d="M814.933 170.667l-428.8 433.067c8.533 21.333 12.8 44.8 12.8 68.267 0 81.067-49.067 151.467-119.467 183.467l-32 12.8v-206.933l-49.067-32-46.933 32 2.133 206.933-32-10.667c-72.533-32-121.6-102.4-121.6-185.6 0-108.8 87.467-198.4 198.4-200.533 0 0 0 0 0 0 23.467 0 46.933 4.267 68.267 10.667l428.8-433.067c14.933-14.933 36.267-25.6 59.733-25.6 46.933 0 85.333 38.4 85.333 85.333 0 25.6-8.533 46.933-25.6 61.867v0zM785.067 81.067c-8.533-8.533-19.2-12.8-29.867-12.8s-21.333 4.267-29.867 12.8l-450.133 454.4-12.8-6.4c-19.2-8.533-40.533-12.8-61.867-12.8v0c0 0 0 0 0 0-87.467 0-157.867 70.4-157.867 157.867 0 53.333 25.6 100.267 66.133 128l-2.133-162.133 89.6-61.867 91.733 59.733v162.133c40.533-29.867 66.133-74.667 66.133-128 0-23.467-4.267-44.8-14.933-66.133l-6.4-12.8 450.133-454.4c8.533-8.533 12.8-19.2 12.8-29.867 2.133-10.667-2.133-21.333-10.667-27.733v0zM755.2 140.8c8.533-8.533 8.533-21.333 0-29.867s-21.333-8.533-29.867 0c-8.533 8.533-8.533 21.333 0 29.867s21.333 8.533 29.867 0z" />
<glyph unicode="&#xe940;" glyph-name="mapMarker" horiz-adv-x="674" d="M337.067 42.667v0c-14.933 12.8-136.533 125.867-215.467 217.6-64 70.4-121.6 151.467-121.6 256 0 0 0 0 0 0 0 185.6 151.467 337.067 337.067 337.067h10.667c185.6 0 326.4-151.467 326.4-337.067 0-102.4-57.6-183.467-121.6-256-78.933-89.6-202.667-204.8-215.467-217.6v0zM337.067 215.467c170.667 0 307.2 138.667 307.2 307.2 0 170.667-138.667 307.2-307.2 307.2-170.667 2.133-307.2-136.533-309.333-305.067 0 0 0 0 0 0 0-170.667 138.667-307.2 309.333-309.333 0 2.133 0 2.133 0 0v0z" />
<glyph unicode="&#xe941;" glyph-name="mapMarkerFilled" horiz-adv-x="674" d="M337.067 42.667v0c-14.933 12.8-136.533 125.867-215.467 217.6-64 70.4-121.6 151.467-121.6 256 0 0 0 0 0 0 0 185.6 151.467 337.067 337.067 337.067h10.667c185.6 0 326.4-151.467 326.4-337.067 0-102.4-57.6-183.467-121.6-256-78.933-89.6-200.533-204.8-215.467-217.6v0z" />
<glyph unicode="&#xe942;" glyph-name="TD" horiz-adv-x="811" d="M569.6 185.6h-241.067v433.067h121.6v-356.267h117.333c81.067 0 113.067 55.467 113.067 198.4s-38.4 185.6-119.467 185.6h-266.667v-462.933h-119.467v465.067h-174.933v76.8h597.333c145.067 0 213.333-74.667 213.333-262.4 0-245.333-102.4-277.333-241.067-277.333v0 0z" />
<glyph unicode="&#xe943;" glyph-name="mortgages" horiz-adv-x="853" d="M746.667 576v213.333c0 11.782-9.551 21.333-21.333 21.333h-64c-11.782 0-21.333-9.551-21.333-21.333v-106.667l-170.667 170.667c-29.867 29.867-54.827 30.507-84.267 1.067l-384-384h106.667v-406.4c0-11.782 9.551-21.333 21.333-21.333h596.267c11.782 0 21.333 9.551 21.333 21.333v405.333h106.667zM704 85.333h-554.667v410.027l277.333 273.707 277.333-266.027zM425.387 588.373c0.465 0.039 1.007 0.061 1.554 0.061 10.957 0 19.84-8.883 19.84-19.84 0-0.547-0.022-1.089-0.066-1.625l0.005-24.25c26.164-3.764 49.256-14.754 67.787-30.856 6.058-6.27 9.892-15.021 9.892-24.668 0-8.395-2.904-16.112-7.761-22.201-6.086-6.594-14.859-10.755-24.603-10.755-8.568 0-16.384 3.217-22.307 8.509-13.91 10.699-31.617 17.164-50.833 17.164-1.618 0-3.226-0.046-4.822-0.136-0.361 0.053-1.040 0.077-1.725 0.077-15.243 0-27.679-12.021-28.345-27.1-0.002-13.5 13.651-18.193 24.958-19.9l37.547-6.187c26.541-2.197 50.295-12.638 69.071-28.724 21.058-16.079 34.611-41.401 34.611-69.889 0-0.206-0.001-0.412-0.002-0.618 0.047-1.099 0.074-2.426 0.074-3.76 0-26.841-10.87-51.142-28.448-68.743-20.072-17.246-45.302-29.029-73.082-32.772l-0.73-17.36c0-11.782-9.551-21.333-21.333-21.333-0.536-0.052-1.159-0.082-1.788-0.082-10.84 0-19.627 8.787-19.627 19.627 0 0.63 0.030 1.252 0.088 1.867l-0.006 17.415c-36.787 2.261-69.476 18.154-93.414 42.64-5.767 6.15-9.293 14.41-9.293 23.493s3.526 17.343 9.284 23.485c6.145 5.631 14.393 9.093 23.449 9.093s17.305-3.462 23.492-9.135c15.478-15.808 37.072-25.622 60.959-25.622 2.338 0 4.653 0.094 6.943 0.278 0.874-0.084 2.25-0.121 3.635-0.121 15.427 0 29.786 4.574 41.795 12.44 7.353 5.561 12.246 14.608 12.246 24.797 0 1.122-0.059 2.229-0.175 3.32 0.012 14.584-14.922 32.504-47.562 33.784 0 0-62.293 5.547-93.653 32.213-15.396 13.738-25.043 33.638-25.043 55.791 0 1.237 0.030 2.466 0.090 3.688-0.040 0.742-0.059 1.816-0.059 2.895 0 47.917 37.794 87.007 85.198 89.086l0.188 21.34c-0.025 0.386-0.039 0.837-0.039 1.291 0 11.782 9.551 21.333 21.333 21.333 0.239 0 0.477-0.004 0.714-0.012z" />
<glyph unicode="&#xe944;" glyph-name="motorHome" horiz-adv-x="939" d="M0 405.333h42.667l469.333-2.133v166.4c0 14.933 12.8 27.733 27.733 27.733v0h113.067c29.867 0 55.467 25.6 55.467 55.467 0 10.667-4.267 21.333-8.533 32v0l-46.933 68.267-4.267 4.267c-12.8 12.8-29.867 23.467-49.067 23.467h-486.4c-2.133 0-2.133 0-4.267 0-29.867 0-57.6-12.8-78.933-32-19.2-23.467-29.867-51.2-29.867-81.067 0-2.133 0-2.133 0-4.267v-258.133zM113.067 736h486.4c6.4 0 12.8-2.133 17.067-8.533l46.933-68.267c2.133-2.133 2.133-4.267 2.133-8.533 0-6.4-6.4-12.8-12.8-12.8v0h-110.933c-38.4 0-70.4-32-70.4-70.4v-123.733l-428.8 4.267v217.6c0 2.133 0 4.267 0 6.4 0 36.267 29.867 66.133 66.133 66.133 2.133-2.133 2.133-2.133 4.267-2.133v0zM119.467 494.933h217.6c8.533 0 14.933 6.4 14.933 14.933 0 0 0 0 0 0v93.867c0 8.533-6.4 14.933-14.933 14.933v0h-217.6c-8.533 0-14.933-6.4-14.933-14.933v0-91.733c0 0 0 0 0 0 0-8.533 6.4-14.933 14.933-17.067v0zM910.933 311.467v49.067c0 19.2-12.8 36.267-29.867 42.667l-42.667 14.933-85.333 123.733c-4.267 4.267-10.667 8.533-17.067 8.533h-136.533c-21.333 0-40.533-17.067-40.533-40.533v0-145.067h-556.8v-104.533c0-14.933 12.8-25.6 27.733-25.6 0 0 0 0 0 0h74.667c4.267 61.867 66.133 108.8 128 108.8s123.733-49.067 128-108.8h273.067c4.267 59.733 66.133 108.8 128 108.8s123.733-46.933 128-108.8h25.6c0 0 0 0 0 0 14.933 0 27.733 12.8 27.733 27.733v0 49.067h-32zM785.067 392.533h-145.067c0 0 0 0 0 0-12.8 0-23.467 10.667-23.467 23.467 0 0 0 0 0 0v74.667c0 0 0 0 0 0 0 12.8 10.667 23.467 23.467 23.467v0h78.933c4.267 0 8.533-2.133 10.667-4.267l66.133-96c2.133-2.133 2.133-4.267 2.133-8.533 0 0 0 0 0 0 0-8.533-6.4-12.8-12.8-12.8 0 0 0 0 0 0v0zM757.333 298.667c-46.933 0-83.2-38.4-83.2-85.333s38.4-85.333 83.2-85.333 85.333 38.4 85.333 85.333v0c0 46.933-38.4 85.333-85.333 85.333 0 0 0 0 0 0v0zM757.333 177.067c-19.2 0-36.267 17.067-36.267 36.267s17.067 36.267 36.267 36.267 36.267-17.067 36.267-36.267c0 0 0 0 0-2.133 0-17.067-17.067-34.133-36.267-34.133v0zM230.4 298.667c-46.933 0-83.2-38.4-83.2-85.333s38.4-85.333 83.2-85.333 83.2 38.4 83.2 85.333-38.4 85.333-83.2 85.333v0 0zM230.4 177.067c-19.2 0-36.267 17.067-36.267 36.267s17.067 36.267 36.267 36.267 36.267-17.067 36.267-36.267c0-19.2-17.067-34.133-36.267-36.267v0 0z" />
</font>
</defs>
</svg>
